<?xml version="1.0" encoding="UTF-8" standalone="no"?>
<svg
   xmlns:dc="http://purl.org/dc/elements/1.1/"
   xmlns:cc="http://creativecommons.org/ns#"
   xmlns:rdf="http://www.w3.org/1999/02/22-rdf-syntax-ns#"
   xmlns:svg="http://www.w3.org/2000/svg"
   xmlns="http://www.w3.org/2000/svg"
   viewBox="0 0 3141.3333 2548"
   height="1000"
   width="1200"
   xml:space="preserve"
   id="svg2"
   version="1.1"><metadata
     id="metadata8"><rdf:RDF><cc:Work
         rdf:about=""><dc:format>image/svg+xml</dc:format><dc:type
           rdf:resource="http://purl.org/dc/dcmitype/StillImage" /></cc:Work></rdf:RDF></metadata><defs
     id="defs6"><clipPath
       id="clipPath202"
       clipPathUnits="userSpaceOnUse"><path
         id="path200"
         d="m 4929.28,8356.9 c -0.04,0 -0.11,0 -0.15,0 0.08,0 0.06,0 0.15,0 m -2.09,0 c -0.17,0 -0.42,0 -0.59,0 0.17,0 0.42,0 0.59,0 m -2.12,0 c -0.13,0 -0.29,0 -0.43,0 0.18,0 0.26,0 0.43,0 m -2.09,0 c -0.17,0 -0.47,0 -0.64,0 0.26,0 0.38,0 0.64,0 m -2.1,0 c -0.22,0 -0.43,0 -0.65,0 0.26,0 0.39,0 0.65,0 m -2.1,0 c -0.22,0 -0.45,0 -0.67,0 0.17,0 0.5,0 0.67,0 m -2.1,0 c -0.22,0 -0.4,0 -0.62,0 0.18,0 0.44,0 0.62,0 m -2.11,0 c -0.22,0 -0.42,0 -0.64,0 0.18,0 0.47,0 0.64,0 m -2.11,0 c -0.22,0 -0.38,0 -0.6,0 0.17,0 0.43,0 0.6,0 m -2.08,0.1 c -0.22,0 -0.43,0 -0.65,0 0.17,0 0.47,0 0.65,0 m -2.13,0 c -0.18,0 -0.36,0 -0.53,0 0.17,0 0.36,0 0.53,0 m -2.09,0 c -0.22,0 -0.42,0 -0.64,0 0.26,0 0.39,0 0.64,0 m -2.1,0 c -0.17,0 -0.39,0 -0.57,0 0.26,0 0.31,0 0.57,0 m -2.13,0 c -0.18,0 -0.34,0 -0.51,0 0.17,0 0.34,0 0.51,0 m -2.09,0.1 c -0.17,0 -0.33,0 -0.51,0 0.17,0 0.34,0 0.51,0 m -2.13,0 c -0.13,0 -0.31,0 -0.44,0 0.18,0 0.27,0 0.44,0 m -2.16,0 c -0.09,0 -0.16,0 -0.25,0 0.09,0 0.16,0 0.25,0 m -2.09,0 c -0.13,0 -0.18,0 -0.31,0 0.17,0 0.14,0 0.31,0 m -2.14,0.1 c -0.09,0 -0.11,0 -0.19,0 h 0.19 m -2.1,0 c -0.08,0 -0.13,0 -0.22,0 0.09,0 0.14,0 0.22,0 m -4.27,0.1 h -0.08 0.08" /></clipPath></defs><g
     transform="matrix(1.3333333,0,0,-1.3333333,0,2548)"
     id="g10"><g
       transform="scale(0.1)"
       id="g12"><g
         transform="scale(1.15371)"
         id="g14"><path
           id="path16"
           style="fill:#ea8936;fill-opacity:1;fill-rule:nonzero;stroke:none"
           d="m 16300,9672.57 c 0,273.57 -221.7,495.43 -495.5,495.43 h -4636.4 c -273.6,0 -495.6,-221.86 -495.6,-495.43 V 6699.51 c 0,-273.64 222,-495.45 495.6,-495.45 h 4636.4 c 273.8,0 495.5,221.81 495.5,495.45 v 2973.06" /></g><g
         transform="scale(1.15371)"
         id="g18"><path
           id="path20"
           style="fill:#d07930;fill-opacity:1;fill-rule:nonzero;stroke:none"
           d="m 15804.5,10168 h -276.1 c 136.6,-562.97 235,-1131.52 -209.8,-1618.62 -396.4,-396.49 -1024,-165.15 -1453.4,-495.47 -297.3,-198.22 66.2,-627.71 -99.1,-759.8 -865.9,-714.39 -1973,-804.53 -3070.3,-744.55 63.6,-200.31 251,-345.5 472.3,-345.5 h 4636.4 c 273.8,0 495.5,221.81 495.5,495.45 v 2973.06 c 0,273.57 -221.7,495.43 -495.5,495.43" /></g><path
         id="path22"
         style="fill:#c67a36;fill-opacity:1;fill-rule:nonzero;stroke:none"
         d="M 4287.11,3187.1 H 3273.03 V 2081.3 h 1014.08 v 1105.8" /><g
         transform="scale(1.24456)"
         id="g24"><path
           id="path26"
           style="fill:#c67a36;fill-opacity:1;fill-rule:nonzero;stroke:none"
           d="m 16300,2560.82 h -814.7 v -888.51 h 814.7 v 888.51" /></g><g
         transform="scale(1.36185)"
         id="g28"><path
           id="path30"
           style="fill:#f89a45;fill-opacity:1;fill-rule:nonzero;stroke:none"
           d="M 16300,4056.26 H 999.619 L 1807.17,6028.14 H 15492.6 L 16300,4056.26" /></g><g
         transform="scale(1.36185)"
         id="g32"><path
           id="path34"
           style="fill:#ea8936;fill-opacity:1;fill-rule:nonzero;stroke:none"
           d="M 15492.6,6028.14 H 1807.17 l -184.83,-451.23 c 3560.51,-38.4 7178.51,148.55 10654.66,-104.78 -403.7,-309.36 -1211,-154.57 -1695.5,-386.68 1049.6,-463.93 2987.5,-38.63 4037.2,-579.95 201.5,-96.49 151.6,-268.09 66,-449.24 H 16300 l -807.4,1971.88" /></g><g
         transform="scale(1.36185)"
         id="g36"><path
           id="path38"
           style="fill:#d9863c;fill-opacity:1;fill-rule:nonzero;stroke:none"
           d="M 16300,3693.51 H 999.619 v 362.75 H 16300 v -362.75" /></g><g
         transform="scale(1.29811)"
         id="g40"><path
           id="path42"
           style="fill:#d9863c;fill-opacity:1;fill-rule:nonzero;stroke:none"
           d="M 16300,3874.86 H 1848.95 V 2455.19 H 16300 v 1419.67" /></g><g
         transform="scale(1.29811)"
         id="g44"><path
           id="path46"
           style="fill:#bf7634;fill-opacity:1;fill-rule:nonzero;stroke:none"
           d="M 16300,3874.86 H 1848.95 v -407.97 c 2871.51,-89.52 5903.63,202.75 8659.05,-200.53 -338.8,-40.44 -931.69,-162.15 -846.96,-364.91 84.59,-81.27 338.73,-121.79 423.46,-121.79 1743.8,-154.61 4275.1,138.58 5642.4,-324.47 h 573.1 v 1419.67" /></g><path
         id="path48"
         style="fill:#fbcbac;fill-opacity:1;fill-rule:nonzero;stroke:none"
         d="m 15967.1,10865.3 c -85.5,-26 -108.8,-52 -117.1,-78 -9.6,-25.9 -17.3,-52 -20.8,-78.1 -7.7,-52 9.3,-104 29,-156 19.9,-51.9 44.6,-103.9 76.1,-155.9 31.2,-52 67.5,-103.9 119.2,-156 h -1218.9 c 51.8,52.1 87.9,104 119.1,156 31.5,52 56.2,104 76.1,155.9 19.7,52 36.8,104 29,156 -3.5,26.1 -11.2,52.2 -20.8,78.1 -8.3,26 -31.5,52 -117.2,78 h 1046.3" /><g
         transform="scale(1.04754)"
         id="g50"><path
           id="path52"
           style="fill:#fbcbac;fill-opacity:1;fill-rule:nonzero;stroke:none"
           d="m 15920.2,9076.43 c -50.5,0 -101.8,11.59 -150,36.02 -2.9,1.4 -423.8,206.42 -1027.8,206.42 -636.3,0 -1014.1,-199.38 -1018.1,-201.29 -160.5,-86.75 -362.3,-28.01 -450,132.2 -87.9,160.15 -31.3,360.42 128,449.3 20.9,11.75 519,284.75 1340.1,284.75 770.8,0 1306.2,-267 1328.5,-278.39 163.8,-83.03 229.1,-283.15 146,-446.86 -58.5,-115.49 -175.4,-182.15 -296.7,-182.15" /></g><path
         id="path54"
         style="fill:#f6edf3;fill-opacity:1;fill-rule:nonzero;stroke:none"
         d="m 15030.5,8383.3 c 27.9,-2.6 54.4,-3.1 81.6,-4.7 -45.9,43.7 -138.8,61.8 -81.6,4.7" /><path
         id="path56"
         style="fill:#fbcbac;fill-opacity:1;fill-rule:nonzero;stroke:none"
         d="m 14230.4,9814.77 c 1.8,-178.73 -24.6,-346.98 -61.5,-511.55 -15.4,-83.44 -42.3,-162.61 -62.9,-244.12 -25.6,-79.6 -52,-159 -79.5,-238 -60.4,-155.9 -124.3,-310.6 -204.2,-459.4 -78.4,-149.3 -166.3,-295.3 -281.8,-431 l -50.9,266.4 c 80.4,-40.3 151.6,-89 213.3,-146.2 62.3,-56.5 119.5,-117.6 171,-183.8 51.9,-65.9 101.2,-134.1 144,-208.1 44.1,-72.9 81.4,-151.8 110.7,-237.8 l 4.5,-12.9 c 28.3,-82.7 -16,-172.7 -98.7,-201.1 -44.9,-15.4 -92.6,-9 -130.7,12.9 -76.1,44.2 -146.6,93.6 -215.4,144.4 -70.7,49.1 -132.8,105.7 -199.7,158.2 -65.1,54.1 -125.5,112.3 -186.8,169.8 l -86.6,91 c -26.9,32.2 -55.1,63 -79.5,97.3 -35,49.1 -49.4,106.6 -45,162.3 l 4.1,50.8 c 14.1,172.9 46.9,338.9 86,502.6 38.3,164.1 87.3,324.2 138.8,483.4 l 84.7,236.13 c 32.4,77.26 60.3,155.94 96.1,231.9 67.4,153.29 141.9,304.09 235.7,447.83 81.1,124.44 247.7,159.34 372.1,78.34 77.5,-50.6 120.2,-134.51 121.8,-220.67 l 0.4,-38.66" /><path
         id="path58"
         style="fill:#fbcbac;fill-opacity:1;fill-rule:nonzero;stroke:none"
         d="m 13958.8,7569.9 c 136.2,-49.1 286.9,30.8 417.2,65.6 49.2,12.9 213.3,66 188.4,-39.2 -7.8,-32.9 -129.6,-92.2 -157.6,-114.1 55,-138 244.6,-72 313.1,-164.4 53.4,-72.2 -126.2,-330.3 -187.4,-379.9 -234.4,-188.9 -530.3,170.4 -649.1,340.6" /><g
         transform="scale(1.08801)"
         id="g60"><path
           id="path62"
           style="fill:#fbcbac;fill-opacity:1;fill-rule:nonzero;stroke:none"
           d="m 15686.1,9198.79 c 105.9,-127.73 185.4,-264.53 255.4,-404.58 37.7,-69.07 64.9,-141.73 98,-212.51 28.4,-72.36 56,-144.92 82.7,-217.91 48.2,-147.61 93.2,-296.33 123.4,-450.37 31.5,-153.4 54.4,-309.83 51.8,-475.17 -1.4,-84.93 -22.5,-164.89 -58.7,-235.67 l -15.7,-30.6 c -35.6,-68.84 -78.7,-129.04 -129.1,-180.33 -49.8,-51.75 -103.5,-98.71 -162.1,-140.26 -58.1,-42 -118.1,-81.43 -183.4,-114.61 -64.4,-34.47 -133.9,-62.5 -209.6,-83.09 l -12.9,-3.4 c -78.1,-21.32 -158.6,24.82 -179.8,103.03 -11,39.98 -3.9,80.98 15.8,113.97 39,64.89 82.5,124.45 127.3,182.36 43.5,59.64 93.3,111.39 139.6,167.55 47.9,54.32 99.1,104.41 149.8,155.24 l 80.3,71.13 c 28.3,21.88 55.5,44.95 85.8,64.43 l -59.5,-212.86 c -91.2,132.81 -164.8,271.5 -232.7,412.4 -68.8,140.44 -127.5,284.56 -184,429.32 l -77.9,219.57 c -22.1,74.52 -48.1,147.64 -67.1,223.24 -41.9,149.91 -77.1,302.06 -94.5,460.44 -14.9,135.56 83,257.56 218.5,272.41 85.2,9.37 164.9,-25.71 216.2,-86.62 l 22.4,-27.11" /></g><g
         transform="scale(1.03812)"
         id="g64"><path
           id="path66"
           style="fill:#fbcbac;fill-opacity:1;fill-rule:nonzero;stroke:none"
           d="m 16227.5,7293.21 c -131.2,-47.3 -276.3,29.67 -402,63.19 -47.2,12.42 -205.3,63.58 -181.3,-37.86 7.5,-31.59 124.6,-88.71 151.8,-109.81 -53.1,-132.94 -235.5,-69.36 -301.6,-158.36 -51.4,-69.56 121.4,-318.18 180.5,-365.96 225.8,-181.96 510.9,164.15 625.1,328.1" /></g><g
         transform="scale(1.07377)"
         id="g68"><path
           id="path70"
           style="fill:#f6edf3;fill-opacity:1;fill-rule:nonzero;stroke:none"
           d="m 15678.3,9468.33 c -19.3,1.17 -346.3,172.15 -853,241.02 l -428.9,-496.73 -454.4,499.31 c -535.6,-68.53 -848.4,-248.29 -867.2,-249.81 -612.3,-46.61 -627.6,-637.93 -576.7,-767.78 l 601.3,-350.4 c 330.8,223.51 234.6,528.26 240.5,530.24 19.3,-96.55 39,-193.16 59.9,-289.77 l 67.7,-310.78 c 21.8,-103.56 60.3,-207.21 100.8,-310.87 41.6,-103.46 77.4,-207.02 85.1,-310.68 0.2,-2.23 0.2,-4.56 0.3,-6.8 h 1458.4 c 0.3,2.24 0.1,4.57 0.4,6.8 7.5,103.66 43.7,207.22 85,310.68 40.5,103.66 79.1,207.31 101,310.87 l 67.6,310.78 c 20.9,96.06 40.5,192.3 59.7,288.3 12.2,-4.14 -46.2,-330.56 218.8,-487.7 0,0 569.2,255.06 589.6,301.67 65.8,151.03 -37.2,752.36 -555.9,781.65" /></g><path
         id="path72"
         style="fill:#cbd1e9;fill-opacity:1;fill-rule:nonzero;stroke:none"
         d="m 15449.2,9902.67 -478.7,525.73 c -69.7,-9.1 -136.2,-19.8 -198.9,-31.6 11.7,-310.5 114.8,-609.63 190.9,-727.46 245.5,-245.52 395,-19.85 486.7,233.33" /><path
         id="path74"
         style="fill:#cbd1e9;fill-opacity:1;fill-rule:nonzero;stroke:none"
         d="m 15443.3,9902.67 478.6,525.73 c 70,-9.1 136.2,-24.6 198.9,-36.6 -11.5,-310.5 -114.5,-604.63 -190.7,-722.46 -245.6,-245.52 -395.1,-19.85 -486.8,233.33" /><path
         id="path76"
         style="fill:#ffffff;fill-opacity:1;fill-rule:nonzero;stroke:none"
         d="m 15117.7,9602.22 c 160.2,-80.21 246.6,134.58 327.3,304.94 l -474.5,521.24 c -64.5,-8.3 -125.6,-18.2 -184.1,-29.1 71.1,-322.9 88.2,-635.13 331.3,-797.08" /><path
         id="path78"
         style="fill:#ffffff;fill-opacity:1;fill-rule:nonzero;stroke:none"
         d="m 15772.5,9602.22 c -160.4,-80.21 -246.8,134.58 -327.5,304.94 l 474.3,521.24 c 64.7,-8.3 125.7,-22.4 184.2,-33.2 -71.3,-323 -88.2,-631.03 -331,-792.98" /><path
         id="path80"
         style="fill:#cbd1e9;fill-opacity:1;fill-rule:nonzero;stroke:none"
         d="m 14160,9166.85 c -126.9,-95.25 -242.2,-97.35 -350.1,-58.15 l 255.9,-149.2 c 230.7,155.84 267.8,347.79 267.2,464.32 -8.1,93.64 -6.5,195.36 -34.4,278.97 -8.2,-255.77 -51.6,-448.8 -138.6,-535.94" /><path
         id="path82"
         style="fill:#cbd1e9;fill-opacity:1;fill-rule:nonzero;stroke:none"
         d="m 15378.7,8644.5 c -615.1,-205.1 -854.7,233.7 -1013.4,684.81 7.8,-37.26 15.1,-74.51 23,-111.6 L 14461,8884 c 23.4,-111.2 64.8,-222.5 108.3,-333.8 18.4,-45.5 34.9,-91.1 49.5,-136.8 180.6,215.7 509.8,64.4 759.9,231.1" /><g
         transform="scale(1.07097)"
         id="g84"><path
           id="path86"
           style="fill:#cbd1e9;fill-opacity:1;fill-rule:nonzero;stroke:none"
           d="m 16285.4,8925.76 c -53.5,-146.32 -560.8,-552.69 -665.7,-346.51 -129.8,90.67 -47.4,449.34 -165.5,449.34 -175,-631.81 -494,-1256.75 -1343.5,-1205.21 22.4,-21.38 32.9,-49.02 5.2,-76.85 -129.6,-43.32 -281.9,-40.43 -433,-28.29 2.2,-15.41 5.1,-30.72 6.3,-46.12 0.2,-2.25 0.2,-4.58 0.3,-6.82 h 1462.2 c 0.3,2.24 0.1,4.57 0.4,6.82 7.5,103.92 43.8,207.75 85.2,311.49 40.6,103.92 79.3,207.85 101.2,311.68 l 67.8,311.6 c 20.9,96.3 40.6,192.8 59.9,289.05 12.2,-4.15 -46.3,-331.43 219.4,-488.98 0,0 570.6,255.72 591.1,302.46 18.8,43.24 23.3,123.53 8.7,216.34" /></g><g
         transform="scale(1.12721)"
         id="g88"><path
           id="path90"
           style="fill:#fbcbac;fill-opacity:1;fill-rule:nonzero;stroke:none"
           d="m 16269.2,11119.7 c -15.4,97.4 -53.3,188.1 -141.9,241 -50,29.7 -97.9,42.6 -143.3,42.6 -13.9,0 -27.6,-1.7 -41,-4 10.2,203.1 13.8,386.4 17.8,499.5 35.5,1091.1 -952.4,2009.8 -2208.4,2056.1 -26.9,0.7 -54.2,1.2 -81,1.2 -3.7,0 -7.6,0 -11.3,0 -3.5,0 -7.1,0 -10.9,0 -26.8,0 -54.1,-0.5 -81.1,-1.2 -1256.2,-46.3 -2243.8,-965 -2208.4,-2056.1 3.8,-113.1 7.5,-296.4 17.9,-499.5 -13.6,2.3 -27.1,4 -41,4 -45.4,0 -93.4,-12.9 -143.1,-42.6 -89,-52.9 -126.8,-143.6 -142.2,-241 -30.9,-195.3 204.4,-396.1 393.9,-402.6 100.8,-562.7 568.1,-963.98 1077,-1168.86 187,-75.42 391.6,-120.55 592.1,-141.81 138.4,-15.35 244,-26.69 417.4,-36.94 0,0 89,-8.71 128.4,-6.94 39.8,-1.77 128.7,6.94 128.7,6.94 173.4,10.25 279,22.56 417.4,36.94 547.8,56.96 1025.3,284.2 1394.3,689.97 152.1,167 235.6,401.9 274.7,620.7 189.6,6.5 424.8,207.3 394,402.6" /></g><path
         id="path92"
         style="fill:#f9a98b;fill-opacity:1;fill-rule:nonzero;stroke:none"
         d="m 15228.7,11760.2 c -9.9,0 -18.3,8.1 -18.3,18.5 -0.4,67.4 58.2,122.4 130.5,122.9 h 0.4 c 72.2,0 130.9,-54.7 131.2,-121.9 0,-10.3 -8.4,-18.5 -18.6,-18.5 -9.9,-0.3 -18.8,8.2 -18.8,18.5 -0.2,46.4 -42.3,84 -93.8,84 h -0.3 c -51.7,-0.2 -93.6,-38.1 -93.3,-84.9 0.1,-10.3 -8.5,-18.6 -18.6,-18.6 h -0.4" /><path
         id="path94"
         style="fill:#f792a2;fill-opacity:1;fill-rule:nonzero;stroke:none"
         d="m 15434.6,11311 c -71,0 -123.9,20.9 -125.1,21.4 -12.6,5.1 -18.7,19.5 -13.5,32.3 5.2,13.1 19.7,19 32.2,13.9 10.4,-4.1 253.6,-98.7 366.5,179.5 5.3,13 19.8,18.9 32.2,13.8 13,-5.1 19,-19.8 13.8,-32.6 -76.8,-188.5 -208.4,-228.3 -306.1,-228.3" /><g
         transform="scale(1.15099)"
         id="g96"><path
           id="path98"
           style="fill:#9b4b33;fill-opacity:1;fill-rule:nonzero;stroke:none"
           d="m 15937.8,12584.6 c 108.6,109.4 116.5,340 109.3,486.3 -9.7,197.8 -62.7,353.2 -168.8,518.2 -46.8,72.6 -95.1,134.4 -178.5,168.6 -46.6,19.3 -158.4,9.8 -192.9,40.2 -27.9,24.8 -21.8,66.8 -29.3,101.1 -45.1,210.5 -215.9,328.6 -421.8,370.1 -1.1,0.2 -1.9,0.4 -2.8,0.6 -67.7,13.5 -85.3,13 -124.6,61.7 -24,29.9 -33.1,83.4 -54.3,117.6 -42.7,68.9 -98.8,113.1 -168,154.9 -103.6,62.6 -196.2,105.1 -317.8,106.3 -149,1.5 -281.4,-70 -411.2,-97.6 -55.9,261.5 -624.7,228.2 -749.1,53.5 -179.6,130.8 -362,150.1 -586.8,123.1 -234.1,-28 -374.9,-134.1 -541.4,-285.9 -52.2,-47.6 -18.3,-33.1 -95.9,-18.3 -57.9,11 -121.1,13.4 -180.7,9 -130,-9.6 -233.2,-51.4 -344.6,-115 -214.1,-122.3 -221.4,-292.2 -233.1,-514.5 -140.3,8.8 -281.8,-111.4 -358.4,-221 -71.7,-102.7 -92.9,-233.5 -99.4,-357.5 -6.7,-125.6 68.2,-313.4 27.5,-425 -31.1,-84.7 -94.1,-157.8 -120.1,-251.2 -39,-139.8 -38.7,-321.6 -18,-466.1 15.5,-107.6 110.2,-203.5 119.8,-297.6 3.9,-36.6 -26.8,-104.9 -27.2,-152.9 -0.7,-50.4 -4.7,-103.6 0,-153.8 12.7,-140.4 93.7,-296.4 213.2,-375.2 8,-5.2 15.2,-10 22.6,-15 32,12.9 68,20.9 109.3,20.9 9.9,0 18.4,-1.9 27.7,-2.8 0.2,54.6 -21.3,543.7 -18.6,543.4 1,-14.5 713.8,39.6 735.5,538.2 202.2,-222.5 1026.7,-36.4 1008.6,360.3 0,0 102.9,-173.6 460.9,-204.5 348.6,-30.1 499.3,85.9 484.8,42.3 0,-287 440,-372.5 621.4,-228.4 -18,-282.2 591.3,-299.9 594.3,-185.8 108,-300.6 592.1,-330.2 592.1,-324.3 -1.7,-0.2 -11.9,-375.9 -12.5,-406.3 -0.2,-31.1 -6.7,-96.2 -5.9,-146.3 14.8,2.1 29.3,4.5 45.6,4.5 67.8,0 122.9,-19.7 165.6,-51.5 36.2,25.6 71,58.2 99.8,95.6 73.2,95.5 121.5,310.9 14,399.4 272.1,245.3 371.9,784.3 9.7,980.7" /></g><g
         transform="scale(1.08019)"
         id="g100"><path
           id="path102"
           style="fill:#a25742;fill-opacity:1;fill-rule:nonzero;stroke:none"
           d="m 15982,13701.9 c -70.5,370.2 -241,569.5 -529.9,635.7 0,0 -245.1,-52 -317.8,-317.8 -530,423.9 -635.9,423.9 -1059.9,-106.1 0,106.1 -84,269.5 -167.7,375.3 -424.2,106 -722.4,-185.5 -925.8,-643 -182,249.6 -178.3,479.8 -178.3,585.7 -243.1,23.1 -529.9,-105.9 -635.9,-318 0,742 954,1271.9 1695.7,1271.9 -23.6,-65.9 0,-318 106,-423.9 408.4,340.3 991.5,374.7 1468.8,215.3 l 107,-296.8 c 133.2,-66.2 333.5,103.5 333.5,103.5 86.2,-62.7 148.1,-156.3 210.3,-234.1 212,-105.9 212,-635.9 -106,-847.7" /></g><g
         transform="scale(1.05885)"
         id="g104"><path
           id="path106"
           style="fill:#ffffff;fill-opacity:1;fill-rule:nonzero;stroke:none"
           d="m 15239,11552.4 c 16.6,48.1 44.7,93.7 71.6,133.2 53.2,78.3 113.4,150.4 188.5,207.8 39.7,30.4 84.3,57.3 128,81.3 362.1,198.4 672.9,-113.4 667.8,-242.3 -14.7,-369 -400.6,-605.9 -736.6,-526.3 -77.5,18.3 -226.6,59 -282.3,119.8 -26.1,28.7 -39.4,66.9 -47.5,104.5 -8.9,41.2 -3.1,82.5 10.5,122" /></g><g
         transform="scale(1.04783)"
         id="g108"><path
           id="path110"
           style="fill:#27232a;fill-opacity:1;fill-rule:nonzero;stroke:none"
           d="m 15781.6,11445.3 c 142,-96.1 331.8,-33.2 419,106.2 99.4,158.6 93.5,383.5 50,559.9 -122.1,63 -284.7,84.8 -459.3,-10.9 -44.2,-24.2 -89.2,-51.4 -129.3,-82.1 -23.7,-18.2 -45.5,-38.1 -66.6,-58.9 -77.9,-77 -13.5,-224.4 23.7,-304 37.7,-80.7 89.2,-160.5 162.5,-210.2" /></g><g
         transform="scale(1.05279)"
         id="g112"><path
           id="path114"
           style="fill:#27232a;fill-opacity:1;fill-rule:nonzero;stroke:none"
           d="m 15431.1,11343.7 c 37.7,-15.2 76.1,-27.7 115.2,-37.5 38.8,-10.6 78.4,-19.9 117.7,-27 78.2,-13.8 158.4,-12.6 236.1,3.1 77.8,15.5 152.5,44.8 220.7,85.9 34.3,20.3 66.4,44.3 96.2,71.1 30.6,26 57.4,56.3 83,87.8 -19.8,-35.5 -44.8,-68.3 -72.5,-98.7 -28.5,-29.7 -60,-56.5 -93.7,-80.1 -67.9,-47.5 -146.4,-79.5 -227.6,-96.3 -81.6,-15.6 -166.5,-16.1 -247.2,4 -79,20.6 -157.7,45.7 -227.9,87.7" /></g><g
         transform="scale(1.05812)"
         id="g116"><path
           id="path118"
           style="fill:#27232a;fill-opacity:1;fill-rule:nonzero;stroke:none"
           d="m 15249.7,11560.3 c 15.9,51.5 43.5,98.8 72.6,144.1 29.2,45.4 59.8,90.5 95.9,131.8 35.3,41.7 76.7,79.9 120.4,113.7 22,16.9 44.7,32.6 67.6,48 l 35,22.3 c 12.4,7.4 24.8,14.5 37.7,20.9 101.6,52.3 168.6,60.8 303.3,43.9 235.7,-31.2 317.8,-247.4 292.9,-249.8 l -8.8,-0.5 -10.9,10.2 c -18.3,17.4 -37.5,33.9 -57.8,48.7 -20.1,15.2 -41.8,27.6 -63.2,40.3 -43,25.1 -89.9,42.1 -137.1,53 -94.6,22.4 -193.6,15 -286.6,-20.4 -11.8,-4.5 -23,-9.3 -34.1,-14.4 l -35,-17.4 c -23.3,-11.8 -46,-24.4 -68,-37.7 -43.7,-27.4 -85.2,-55.9 -124,-91.3 -38.8,-34.5 -73.3,-74.5 -108.4,-114.7 -34.7,-40.4 -66.7,-82.5 -91.5,-130.7" /></g><g
         transform="scale(1.01027)"
         id="g120"><path
           id="path122"
           style="fill:#ffffff;fill-opacity:1;fill-rule:nonzero;stroke:none"
           d="m 16300,12183.1 c 0,45 -36.5,81.4 -81.4,81.4 -45,0 -81.4,-36.4 -81.4,-81.4 0,-45 36.4,-81.4 81.4,-81.4 44.9,0 81.4,36.4 81.4,81.4" /></g><g
         transform="scale(1.0112)"
         id="g124"><path
           id="path126"
           style="fill:#ffffff;fill-opacity:1;fill-rule:nonzero;stroke:none"
           d="m 16300,12001.3 c 0,27.8 -22.5,50.3 -50.3,50.3 -27.7,0 -50.1,-22.5 -50.1,-50.3 0,-27.7 22.4,-50.2 50.1,-50.2 27.8,0 50.3,22.5 50.3,50.2" /></g><g
         transform="scale(1.04993)"
         id="g128"><path
           id="path130"
           style="fill:#ffffff;fill-opacity:1;fill-rule:nonzero;stroke:none"
           d="m 16287.1,11832.3 c 12.9,41.4 -10.2,85.3 -51.6,98.1 -41.4,12.8 -85.2,-10.3 -98,-51.7 -12.8,-41.2 10.3,-85.1 51.5,-97.9 41.4,-12.8 85.4,10.2 98.1,51.5" /></g><g
         transform="scale(1.04737)"
         id="g132"><path
           id="path134"
           style="fill:#ffffff;fill-opacity:1;fill-rule:nonzero;stroke:none"
           d="m 16291.9,11699.8 c 8.1,25.6 -6.3,52.6 -31.9,60.7 -25.7,7.8 -52.7,-6.5 -60.7,-32.1 -8,-25.5 6.5,-52.7 32,-60.6 25.5,-8 52.8,6.4 60.6,32" /></g><g
         transform="scale(1.04145)"
         id="g136"><path
           id="path138"
           style="fill:#ffffff;fill-opacity:1;fill-rule:nonzero;stroke:none"
           d="m 16294.6,11838.5 c 5.4,17.5 -4.4,36 -21.8,41.3 -17.4,5.5 -36.1,-4.3 -41.5,-21.8 -5.3,-17.3 4.4,-35.9 21.8,-41.2 17.5,-5.6 36,4.2 41.5,21.7" /></g><g
         transform="scale(1.06471)"
         id="g140"><path
           id="path142"
           style="fill:#7d3c28;fill-opacity:1;fill-rule:nonzero;stroke:none"
           d="M 15466.4,12475.2 V 12203 c 0,0 267.4,46.6 391.9,22.8 356.2,-68.1 441.7,-163.4 441.7,-163.4 0,0 -56.8,386.3 -833.6,412.8" /></g><g
         transform="scale(1.00705)"
         id="g144"><path
           id="path146"
           style="fill:#7d3c28;fill-opacity:1;fill-rule:nonzero;stroke:none"
           d="m 16300,12895.7 c -17.7,21.4 -30.7,45.8 -41.4,71.2 -10.6,25.3 -18,52.2 -22.6,79.8 -3.6,27.5 -4.2,56.1 1.5,84 5.3,27.7 17.7,54.7 37.3,74.3 -8.9,-26.1 -13,-51.5 -14,-77.1 -0.6,-25.7 1.2,-51.3 5.1,-76.8 7.5,-51.5 21.4,-102 34.1,-155.4" /></g><g
         transform="scale(1.00332)"
         id="g148"><path
           id="path150"
           style="fill:#7d3c28;fill-opacity:1;fill-rule:nonzero;stroke:none"
           d="m 16300,12945.9 c -27.6,34.9 -43.8,75.7 -54,118 -4.8,21.3 -7.8,43.1 -7.5,65.4 0.1,21.9 3.5,44.5 13.4,64.6 5.2,-43.5 14.1,-82.5 23.6,-123.2 8.8,-40.7 19.2,-81.1 24.5,-124.8" /></g><g
         transform="scale(1.00906)"
         id="g152"><path
           id="path154"
           style="fill:#7d3c28;fill-opacity:1;fill-rule:nonzero;stroke:none"
           d="m 16291.4,12880.4 c -11,24.3 -17.8,49.8 -22.7,75.5 -5,25.6 -7.4,51.8 -8,78.2 0,26.1 1.5,52.7 7.5,78.7 5.6,25.9 15.2,52 31.8,72.9 -5.2,-26 -7.4,-50.8 -8.5,-75.9 -1,-25.1 -1.3,-50.3 -0.7,-75.4 0.3,-50.6 3,-101.2 0.6,-154" /></g><path
         id="path156"
         style="fill:#ffffff;fill-opacity:1;fill-rule:nonzero;stroke:none"
         d="m 14649.7,12232.2 c -17.6,51 -47.2,99.2 -75.8,141 -56.4,83 -120,159.3 -199.7,220.1 -41.9,32.1 -89.1,60.7 -135.4,86 -383.5,210.1 -712.5,-120 -707.1,-256.5 15.7,-390.7 424.2,-641.5 779.8,-557.2 82.2,19.4 240.1,62.4 299,126.8 27.8,30.3 41.8,70.8 50.4,110.7 9.4,43.5 3.3,87.3 -11.2,129.1" /><path
         id="path158"
         style="fill:#27232a;fill-opacity:1;fill-rule:nonzero;stroke:none"
         d="m 14249,11992.8 c -148.9,-100.7 -347.8,-34.9 -439.1,111.3 -104,166.2 -97.9,401.8 -52.2,586.6 127.7,66 298.1,88.9 481.1,-11.4 46.3,-25.3 93.5,-53.9 135.4,-86 24.9,-19 47.8,-39.9 69.8,-61.7 81.7,-80.8 14.4,-235.1 -24.6,-318.5 -39.7,-84.7 -93.6,-168.3 -170.4,-220.3" /><path
         id="path160"
         style="fill:#27232a;fill-opacity:1;fill-rule:nonzero;stroke:none"
         d="m 14539.8,11942.6 c -39.6,-16 -80.1,-29.2 -121.4,-39.5 -40.8,-11.2 -82.3,-21 -123.8,-28.4 -82.2,-14.6 -166.9,-13.3 -248.7,3.2 -81.8,16.3 -160.5,47.2 -232.3,90.5 -36.1,21.3 -69.9,46.6 -101.2,74.8 -32.2,27.3 -60.4,59.2 -87.3,92.4 20.7,-37.4 47,-71.9 76.2,-103.9 29.9,-31.3 63.1,-59.4 98.7,-84.3 71.5,-50 154.1,-83.7 239.6,-101.4 85.8,-16.4 175.3,-16.9 260.3,4.3 83,21.6 166,48.1 239.9,92.3" /><path
         id="path162"
         style="fill:#27232a;fill-opacity:1;fill-rule:nonzero;stroke:none"
         d="m 14649.4,12232.2 c -16.8,54.5 -46,104.6 -76.8,152.5 -30.9,48 -63.3,95.7 -101.4,139.5 -37.4,44.1 -81.3,84.5 -127.6,120.2 -23.1,18 -47.1,34.6 -71.4,50.8 l -37,23.6 c -13.1,7.9 -26.3,15.4 -39.8,22.2 -107.7,55.3 -178.5,64.3 -321,46.4 -249.3,-33 -336.2,-261.7 -310,-264.3 h 0.1 l 9.3,-0.6 11.5,10.9 c 19.4,18.4 39.7,35.9 61.1,51.5 21.3,16 44.3,29.2 66.9,42.7 45.4,26.5 95,44.5 145.1,56 100.1,23.8 204.9,15.8 303.1,-21.6 12.5,-4.7 24.5,-9.8 36.3,-15.2 l 37,-18.4 c 24.6,-12.5 48.7,-25.8 71.9,-39.9 46.3,-29 90.2,-59.2 131.1,-96.7 41.2,-36.4 77.7,-78.7 114.8,-121.3 36.7,-42.7 70.6,-87.3 96.8,-138.3" /><path
         id="path164"
         style="fill:#ffffff;fill-opacity:1;fill-rule:nonzero;stroke:none"
         d="m 14318.2,12308.2 c 0,45.5 36.8,82.3 82.1,82.3 45.5,0 82.3,-36.8 82.3,-82.3 0,-45.4 -36.8,-82.2 -82.3,-82.2 -45.3,0 -82.1,36.8 -82.1,82.2" /><path
         id="path166"
         style="fill:#ffffff;fill-opacity:1;fill-rule:nonzero;stroke:none"
         d="m 14302.9,12135.6 c 0,28.2 22.9,50.9 50.9,50.9 28.1,0 50.7,-22.7 50.7,-50.9 0,-27.9 -22.6,-50.7 -50.7,-50.7 -28,0 -50.9,22.8 -50.9,50.7" /><path
         id="path168"
         style="fill:#ffffff;fill-opacity:1;fill-rule:nonzero;stroke:none"
         d="m 13685.1,12423.1 c -13.4,43.5 10.8,89.6 54.2,103.1 43.4,13.4 89.4,-10.9 102.8,-54.3 13.5,-43.4 -10.6,-89.4 -54.1,-102.8 -43.4,-13.5 -89.5,10.7 -102.9,54" /><path
         id="path170"
         style="fill:#ffffff;fill-opacity:1;fill-rule:nonzero;stroke:none"
         d="m 13721.9,12254 c -8.4,26.8 6.6,55.1 33.3,63.6 26.9,8.2 55.3,-6.9 63.6,-33.6 8.3,-26.7 -6.7,-55.2 -33.5,-63.5 -26.7,-8.4 -55.2,6.7 -63.4,33.5" /><path
         id="path172"
         style="fill:#ffffff;fill-opacity:1;fill-rule:nonzero;stroke:none"
         d="m 13815.4,12329.3 c -5.5,18.1 4.6,37.5 22.7,43 18.1,5.7 37.5,-4.5 43.1,-22.7 5.7,-18.1 -4.6,-37.4 -22.5,-43 -18.3,-5.7 -37.6,4.4 -43.3,22.7" /><path
         id="path174"
         style="fill:#7d3c28;fill-opacity:1;fill-rule:nonzero;stroke:none"
         d="m 14318.2,13282.5 v -289.9 c 0,0 -284.8,49.7 -417.3,24.3 -379.2,-72.4 -470.3,-173.9 -470.3,-173.9 0,0 60.6,411.3 887.6,439.5" /><path
         id="path176"
         style="fill:#7d3c28;fill-opacity:1;fill-rule:nonzero;stroke:none"
         d="m 14370.5,12986.6 c 17.8,21.5 30.9,46.2 41.7,71.7 10.8,25.5 18.4,52.5 22.8,80.4 3.7,27.7 4.3,56.5 -1.3,84.5 -5.5,27.9 -18,55.2 -37.6,74.9 8.8,-26.3 13.1,-51.9 14,-77.7 0.5,-25.8 -1.2,-51.6 -5.2,-77.3 -7.5,-51.9 -21.6,-102.7 -34.4,-156.5" /><path
         id="path178"
         style="fill:#7d3c28;fill-opacity:1;fill-rule:nonzero;stroke:none"
         d="m 14431.4,12988.9 c 27.7,35 44.1,76 54.3,118.4 4.6,21.3 7.9,43.2 7.4,65.6 -0.2,22 -3.5,44.7 -13.4,64.8 -5.4,-43.6 -14.3,-82.8 -23.7,-123.6 -8.9,-40.8 -19.3,-81.3 -24.6,-125.2" /><path
         id="path180"
         style="fill:#7d3c28;fill-opacity:1;fill-rule:nonzero;stroke:none"
         d="m 14346.5,12997.1 c 11.1,24.5 17.8,50.2 22.9,76.2 5,25.8 7.4,52.3 8,78.9 0,26.3 -1.6,53.2 -7.6,79.5 -5.5,26 -15.2,52.4 -32.1,73.5 5.2,-26.3 7.5,-51.3 8.7,-76.6 1,-25.4 1.3,-50.7 0.7,-76.1 -0.3,-51 -3,-102.1 -0.6,-155.4" /><path
         id="path182"
         style="fill:#bd542e;fill-opacity:1;fill-rule:nonzero;stroke:none"
         d="m 5717.52,13045.1 156.16,470.7 -142.38,46.6 -156.28,-470.7 142.5,-46.6" /><path
         id="path184"
         style="fill:#bd542e;fill-opacity:1;fill-rule:nonzero;stroke:none"
         d="m 4039.3,7115.5 c -118.09,-64.2 -299.52,-357 -242.79,-479 h 2598.8 c 45.87,128 -120.49,421.7 -241.94,479 v 1.8 c -153.66,104.2 -718.56,235.2 -718.56,235.2 v 522.9 c 1139.99,144.6 2151.35,921.1 2531.79,2077.85 526.5,1600.25 -353.53,3321.05 -1966.14,3843.55 -47.93,15.7 -96.62,29.1 -144.88,41.9 l -121.79,39.4 c -25.49,8.6 -52.81,-5.3 -61.27,-30.7 l -74.84,-227.5 c -8.45,-25.4 5.65,-52.8 31.14,-61 l 99.87,-32.5 110.51,-36 100.42,-32.2 c 25.38,-8.4 52.93,5.5 61.17,30.9 l 32.32,97.9 C 7557.32,12805.1 8137.4,11438.5 7679.22,10046.6 7213.97,8630.9 5905.57,7848.3 4248.83,8162.9 l 29.39,89.8 c 8.24,25.3 -5.54,52.4 -31.13,60.8 l -100.3,32.4 -110.4,35.7 -100.33,32.6 c -25.37,8.3 -52.58,-5.6 -61.05,-30.8 l -75.15,-227.7 c -7.92,-25.4 5.85,-52.7 31.13,-60.6 l 72.76,-23.9 c 62.47,-24.8 125.58,-48.4 190.55,-69.4 220.36,-71.5 442.35,-115.8 663.47,-136.7 v -514.9 c 0,0 -517.83,-125.3 -718.47,-234.7" /><path
         id="path186"
         style="fill:#a33e27;fill-opacity:1;fill-rule:nonzero;stroke:none"
         d="m 6000.46,13796.8 c -47.93,15.7 -96.62,29.1 -144.88,41.9 l -121.79,39.4 c -25.49,8.6 -52.81,-5.3 -61.27,-30.7 l -74.83,-227.5 c -8.46,-25.4 5.64,-52.8 31.13,-61 l 99.87,-32.5 110.51,-36 100.42,-32.2 c 25.38,-8.4 52.93,5.5 61.17,30.9 l 32.32,97.9 C 7557.32,12805.1 8137.4,11438.5 7679.22,10046.6 7315.48,8939.9 6436.2,8220.1 5278.1,8108.9 c 37.95,-210.4 -7.06,-423.2 -275.02,-507.2 -71.68,-23.7 -95.87,-167.4 -71.68,-263.1 71.68,-167.5 239.01,-167.5 334.88,-287.3 143.58,-167.7 -95.87,-311.2 -239.35,-311.2 -416.54,-36.1 -832.54,-72.2 -1238.56,-15.2 -4.67,-34.2 -3.04,-64.7 8.13,-88.4 h 2598.81 c 45.87,128 -120.49,421.7 -241.94,479 v 1.8 c -153.66,104.2 -718.57,235.2 -718.57,235.2 v 522.9 c 1139.99,144.6 2151.36,921.1 2531.8,2077.85 526.51,1600.25 -353.53,3321.05 -1966.14,3843.55" /><path
         id="path188"
         style="fill:#bd542e;fill-opacity:1;fill-rule:nonzero;stroke:none"
         d="m 4119.88,8172.6 156.5,470.7 -142.5,46.5 -156.49,-470.4 142.49,-46.8" /><path
         id="path190"
         style="fill:#18b4e3;fill-opacity:1;fill-rule:nonzero;stroke:none"
         d="m 2363.91,10924.1 c 0,1418.1 1149.11,2567.4 2567.48,2567.4 1417.84,0 2567.26,-1149.3 2567.26,-2567.4 0,-1417.87 -1149.42,-2567.2 -2567.26,-2567.2 -1418.37,0 -2567.48,1149.33 -2567.48,2567.2" /><path
         id="path192"
         style="fill:#1b92d9;fill-opacity:1;fill-rule:nonzero;stroke:none"
         d="m 5341.65,8716.3 c 92.93,108.4 46.41,278.7 154.86,387.4 77.32,61.74 216.79,92.75 232.4,154.79 154.97,495.6 -495.6,573.14 -697.09,929.21 -77.44,108.5 30.9,294.5 -77.44,402.9 -154.86,201.5 -480.09,325.2 -418.38,650.6 31.12,108.5 108.55,185.8 155.18,263.3 92.84,201.4 -124.06,495.7 30.8,619.6 201.5,170.2 604.27,30.9 774.53,309.7 77.32,139.6 92.93,263.3 201.38,418.4 110.18,159 56.07,347.1 -9.87,525.9 -239.23,73.8 -493.32,113.4 -756.63,113.4 -693.51,0 -1322.61,-275 -1784.59,-721.9 9.11,-426.7 39.25,-908.7 490.93,-1094.8 46.63,-15.2 139.36,-92.9 92.95,-185.7 -61.82,-108.6 -61.82,-247.9 15.39,-309.9 124.05,-123.9 325.45,-154.9 511.21,-185.9 124.08,-31 201.5,-123.9 232.52,-232.2 46.2,-139.5 31.01,-325.4 -139.57,-372 -263.31,-61.8 -743.3,-92.9 -681.37,-433.58 15.5,-108.6 139.24,-185.86 123.74,-309.66 -61.92,-247.96 -387.27,-232.62 -449.3,-434 -46.31,-92.93 77.54,-232.36 170.58,-294.06 109.65,-61.3 171.36,-170.1 222.87,-266.5 255.39,-134.5 536.37,-227 833.62,-269 234.36,139.8 594.18,68.1 771.28,334" /><path
         id="path194"
         style="fill:#1b92d9;fill-opacity:1;fill-rule:nonzero;stroke:none"
         d="m 6824.44,12658.1 c -203.76,-47 -404.94,-100.9 -507.1,-270.7 -92.83,-154.8 31.24,-387.2 -46.2,-573.1 -139.57,-294.4 -588.76,-185.9 -728.22,-433.8 -216.67,-340.7 340.96,-588.4 573.25,-867.4 139.46,-170.3 77.22,-387.2 -15.61,-573.19 -46.31,-77.48 -46.31,-185.82 -15.51,-263.31 115.49,-283.2 380.32,-481.17 669.12,-560.12 459.92,463.93 744.48,1102.62 744.48,1807.62 0,668.7 -255.61,1277.3 -674.21,1734" /><g
         id="g196"><g
           clip-path="url(#clipPath202)"
           id="g198"><path
             id="path204"
             style="fill:#1f6fa4;fill-opacity:1;fill-rule:nonzero;stroke:none"
             d="m 4884.87,8356.9 h 44.4102 v 0.4023 H 4884.87 Z" /></g></g><path
         id="path206"
         style="fill:#00ace1;fill-opacity:1;fill-rule:nonzero;stroke:none"
         d="m 4931.39,8356.9 v 0 c -0.7,0 -1.4,0 -2.11,0 -0.09,0 -0.07,0 -0.15,0 -0.66,0 -1.28,0 -1.94,0 -0.17,0 -0.42,0 -0.59,0 -0.53,0 -1,0 -1.53,0 -0.17,0 -0.25,0 -0.43,0 -0.57,0 -1.09,0 -1.66,0 -0.26,0 -0.38,0 -0.64,0 -0.49,0 -0.97,0 -1.46,0 -0.26,0 -0.39,0 -0.65,0 -0.49,0 -0.96,0 -1.45,0 -0.17,0 -0.5,0 -0.67,0 -0.49,0 -0.95,0 -1.43,0 -0.18,0 -0.44,0 -0.62,0 -0.48,0 -1,0 -1.49,0 -0.17,0 -0.46,0 -0.64,0 -0.48,0 -0.98,0 -1.47,0 -0.17,0 -0.43,0 -0.6,0 -0.48,0 -1,0 -1.48,0.1 -0.18,0 -0.48,0 -0.65,0 -0.48,0 -1,0 -1.48,0 -0.17,0 -0.36,0 -0.53,0 -0.53,0 -1.03,0 -1.56,0 -0.25,0 -0.38,0 -0.64,0 -0.49,0 -0.97,0 -1.46,0 -0.26,0 -0.31,0 -0.57,0 -0.53,0 -1.03,0 -1.56,0 -0.17,0 -0.34,0 -0.51,0 -0.53,0 -1.05,0.1 -1.58,0.1 -0.17,0 -0.34,0 -0.51,0 -0.53,0 -1.09,0 -1.62,0 -0.17,0 -0.26,0 -0.44,0 -0.57,0 -1.15,0 -1.72,0 -0.09,0 -0.16,0 -0.25,0 -0.61,0 -1.22,0 -1.84,0 -0.17,0 -0.14,0 -0.31,0 -0.57,0.1 -1.26,0.1 -1.83,0.1 h -0.19 c -0.62,0 -1.29,0 -1.91,0 -0.08,0 -0.13,0 -0.22,0 -1.36,0 -2.69,0.1 -4.05,0.1 h -0.08 c -704.05,12.5 -1338.61,308.3 -1795.23,778.21 43.71,-15.88 87.2,-31.81 129.82,-47.51 55.93,-19.9 113.12,-38.2 171.23,-54.7 35.7,-46.5 82.41,-88.5 123.19,-115.5 109.65,-61.3 171.36,-170.1 222.87,-266.5 255.39,-134.5 536.37,-227 833.62,-269 234.36,139.8 594.18,68.1 771.28,334 92.93,108.4 46.41,278.7 154.86,387.4 77.32,61.74 216.79,92.75 232.4,154.79 154.97,495.6 -495.6,573.14 -697.09,929.21 -77.44,108.5 30.9,294.5 -77.44,402.9 -46.18,60.1 -107.53,113.3 -169.24,166.9 38.9,43 86.48,77.6 138.34,96.5 211.29,80.1 436.38,115.7 652.59,164.8 133.78,-175.9 397.9,-334.9 540.1,-505.7 139.46,-170.3 77.22,-387.2 -15.61,-573.19 -46.31,-77.48 -46.31,-185.82 -15.51,-263.31 115.49,-283.2 380.32,-481.17 669.12,-560.12 459.92,463.93 744.48,1102.62 744.48,1807.62 v 0 c 0,-1417.87 -1149.42,-2567.2 -2567.26,-2567.2" /><path
         id="path208"
         style="fill:#117fcc;fill-opacity:1;fill-rule:nonzero;stroke:none"
         d="m 4570.37,8382.3 c -297.25,42 -578.23,134.5 -833.62,269 -51.51,96.4 -113.22,205.2 -222.87,266.5 -40.78,27 -87.49,69 -123.19,115.5 191.41,-54.3 392.66,-88.5 591.71,-88.5 259.41,0 515.02,58.1 739.58,205.19 495.71,309.77 186.1,867.41 -15.4,1270.11 -54.02,97.1 -10.41,239.1 78.56,337.4 61.71,-53.6 123.06,-106.8 169.24,-166.9 108.34,-108.4 0,-294.4 77.44,-402.9 201.49,-356.07 852.06,-433.61 697.09,-929.21 -15.61,-62.04 -155.08,-93.05 -232.4,-154.79 -108.45,-108.7 -61.93,-279 -154.86,-387.4 -177.1,-265.9 -536.92,-194.2 -771.28,-334" /><path
         id="path210"
         style="fill:#1f6fa4;fill-opacity:1;fill-rule:nonzero;stroke:none"
         d="m 7498.65,10926.5 c 0,0.1 0,0.2 0,0.3 0,0.1 0,0.2 0,0.3 0,-0.2 0,-0.5 0,-0.6" /><path
         id="path212"
         style="fill:#00ace1;fill-opacity:1;fill-rule:nonzero;stroke:none"
         d="m 7498.65,10926.4 c 0,0.2 0,0.2 0,0.4 0,-0.1 0,-0.2 0,-0.3 0,-0.1 0,0 0,-0.1" /><path
         id="path214"
         style="fill:#1f6fa4;fill-opacity:1;fill-rule:nonzero;stroke:none"
         d="m 7498.65,10928.9 v 0.1 c 0,0.2 0,0.4 0,0.6 0,-0.3 0,-0.4 0,-0.7" /><path
         id="path216"
         style="fill:#00ace1;fill-opacity:1;fill-rule:nonzero;stroke:none"
         d="m 7498.65,10928.9 c 0,0 0,0 0,0.1 v -0.1 0" /><path
         id="path218"
         style="fill:#1f6fa4;fill-opacity:1;fill-rule:nonzero;stroke:none"
         d="m 7498.64,10931.9 c 0,0.1 0,0.1 0,0.2 0,-0.1 0,-0.1 0,-0.2 m -0.01,2.6 c 0,0.2 0,0.4 0,0.5 0,-0.2 0,-0.3 0,-0.5" /><path
         id="path220"
         style="fill:#00ace1;fill-opacity:1;fill-rule:nonzero;stroke:none"
         d="m 7498.63,10934.3 c 0,0.2 0,0.5 0,0.8 v -0.1 c 0,-0.1 0,-0.3 0,-0.5 0,-0.1 0,-0.2 0,-0.2" /><path
         id="path222"
         style="fill:#1f6fa4;fill-opacity:1;fill-rule:nonzero;stroke:none"
         d="m 7498.62,10936.9 c 0,0.1 0,0.1 0,0.2 0,0.1 0,0.3 0,0.3 0,-0.1 0,-0.3 0,-0.5" /><path
         id="path224"
         style="fill:#00ace1;fill-opacity:1;fill-rule:nonzero;stroke:none"
         d="m 7498.62,10936.8 c 0,0.1 0,0.2 0,0.3 0,-0.1 0,-0.1 0,-0.2 0,0 0,-0.1 0,-0.1" /><path
         id="path226"
         style="fill:#1f6fa4;fill-opacity:1;fill-rule:nonzero;stroke:none"
         d="m 7498.6,10939.8 c 0,0.1 0,0.2 0,0.2 0,0 0,-0.1 0,-0.2 m -0.01,2.4 v 0 c 0,0.1 0,0.3 0,0.4 0,-0.2 0,-0.3 0,-0.4" /><path
         id="path228"
         style="fill:#00ace1;fill-opacity:1;fill-rule:nonzero;stroke:none"
         d="m 7498.59,10942.2 c 0,0.2 0,0.5 -0.01,0.7 0,-0.1 0.01,-0.2 0.01,-0.3 0,-0.1 0,-0.3 0,-0.4" /><path
         id="path230"
         style="fill:#1f6fa4;fill-opacity:1;fill-rule:nonzero;stroke:none"
         d="m 7498.57,10944.9 c 0,0.2 0,0.2 0,0.3 0,0.1 0,0.1 -0.01,0.2 0.01,-0.2 0.01,-0.3 0.01,-0.5" /><path
         id="path232"
         style="fill:#00ace1;fill-opacity:1;fill-rule:nonzero;stroke:none"
         d="m 7498.57,10944.5 c 0,0.3 0,0.5 0,0.7 0,-0.1 0,-0.1 0,-0.3 0,-0.1 0,-0.3 0,-0.4" /><path
         id="path234"
         style="fill:#1f6fa4;fill-opacity:1;fill-rule:nonzero;stroke:none"
         d="m 7498.55,10947.6 c -0.01,0.2 -0.01,0.4 -0.01,0.5 0,-0.1 0,-0.4 0.01,-0.5 m -0.03,2.3 c 0,0.2 0,0.2 0,0.3 0,0.1 0,0.4 0,0.5 0,-0.3 0,-0.5 0,-0.8" /><path
         id="path236"
         style="fill:#00ace1;fill-opacity:1;fill-rule:nonzero;stroke:none"
         d="m 7498.52,10950.2 c 0,0.2 0,0.4 0,0.6 0,0 0,-0.1 0,-0.1 0,-0.1 0,-0.4 0,-0.5" /><path
         id="path238"
         style="fill:#1f6fa4;fill-opacity:1;fill-rule:nonzero;stroke:none"
         d="m 7498.5,10952.5 c -0.01,0.2 -0.01,0.4 -0.01,0.5 0,-0.1 0,-0.3 0.01,-0.5" /><path
         id="path240"
         style="fill:#00ace1;fill-opacity:1;fill-rule:nonzero;stroke:none"
         d="m 7498.5,10952.4 c 0,0.2 -0.01,0.6 -0.01,0.8 0,-0.1 0,-0.1 0,-0.2 0,-0.1 0,-0.3 0.01,-0.5 v -0.1" /><path
         id="path242"
         style="fill:#1f6fa4;fill-opacity:1;fill-rule:nonzero;stroke:none"
         d="m 7498.46,10955.4 c 0,0.3 0,0.5 -0.01,0.8 v 0 c 0.01,-0.3 0.01,-0.5 0.01,-0.8" /><path
         id="path244"
         style="fill:#00ace1;fill-opacity:1;fill-rule:nonzero;stroke:none"
         d="m 7498.45,10956.2 c 0,0 0,0 0,0 v 0 0" /><path
         id="path246"
         style="fill:#1f6fa4;fill-opacity:1;fill-rule:nonzero;stroke:none"
         d="m 7498.43,10957.8 c 0,0.3 0,0.6 -0.01,0.9 0.01,-0.3 0.01,-0.6 0.01,-0.9" /><path
         id="path248"
         style="fill:#00ace1;fill-opacity:1;fill-rule:nonzero;stroke:none"
         d="m 7498.44,10957.7 c -0.01,0.4 -0.01,0.7 -0.02,1 v 0 c 0.01,-0.3 0.01,-0.6 0.01,-0.9 0.01,-0.1 0,0 0.01,-0.1" /><path
         id="path250"
         style="fill:#1f6fa4;fill-opacity:1;fill-rule:nonzero;stroke:none"
         d="m 7498.4,10960.2 c 0,0.4 -0.01,0.6 -0.01,0.9 0,-0.3 0.01,-0.6 0.01,-0.9" /><path
         id="path252"
         style="fill:#00ace1;fill-opacity:1;fill-rule:nonzero;stroke:none"
         d="m 7498.4,10960.1 c 0,0.3 -0.01,0.7 -0.01,1.1 v -0.1 c 0,-0.3 0.01,-0.5 0.01,-0.9 0,0 0,-0.1 0,-0.1" /><path
         id="path254"
         style="fill:#1f6fa4;fill-opacity:1;fill-rule:nonzero;stroke:none"
         d="m 7498.36,10963.2 c 0,0 0,0 0,0.1 0,0.1 -0.01,0.4 -0.01,0.5 0,-0.1 0.01,-0.4 0.01,-0.6" /><path
         id="path256"
         style="fill:#00ace1;fill-opacity:1;fill-rule:nonzero;stroke:none"
         d="m 7498.36,10963.3 c -0.01,0.3 -0.01,0.7 -0.02,1.1 0,-0.3 0.01,-0.4 0.01,-0.6 0,-0.1 0.01,-0.4 0.01,-0.5" /><path
         id="path258"
         style="fill:#1f6fa4;fill-opacity:1;fill-rule:nonzero;stroke:none"
         d="m 7498.32,10965.7 c 0,0.3 -0.01,0.7 -0.01,0.9 0,0.1 -0.01,0.1 -0.01,0.1 0.01,-0.3 0.01,-0.6 0.02,-1" /><path
         id="path260"
         style="fill:#00ace1;fill-opacity:1;fill-rule:nonzero;stroke:none"
         d="m 7498.33,10965.4 c -0.01,0.4 -0.02,0.8 -0.02,1.2 0,-0.2 0.01,-0.6 0.01,-0.9 0,-0.1 0,-0.2 0.01,-0.3" /><path
         id="path262"
         style="fill:#1f6fa4;fill-opacity:1;fill-rule:nonzero;stroke:none"
         d="m 7498.28,10968.1 c 0,0.2 0,0.4 -0.01,0.5 0,0.2 0,0.3 0,0.4 0,-0.3 0.01,-0.6 0.01,-0.9" /><path
         id="path264"
         style="fill:#00ace1;fill-opacity:1;fill-rule:nonzero;stroke:none"
         d="m 7498.29,10967.7 c -0.01,0.4 -0.01,0.6 -0.02,0.9 0.01,-0.1 0.01,-0.3 0.01,-0.5 0,-0.1 0,-0.2 0.01,-0.4" /><path
         id="path266"
         style="fill:#1f6fa4;fill-opacity:1;fill-rule:nonzero;stroke:none"
         d="m 7498.23,10970.8 c 0,0.1 0,0.3 0,0.5 0,0 -0.01,0.2 -0.01,0.3 0.01,-0.3 0.01,-0.5 0.01,-0.8" /><path
         id="path268"
         style="fill:#00ace1;fill-opacity:1;fill-rule:nonzero;stroke:none"
         d="m 7498.23,10971.3 c -0.01,0.3 -0.02,0.6 -0.02,1 0,-0.2 0.01,-0.5 0.01,-0.7 0,-0.1 0.01,-0.3 0.01,-0.3" /><path
         id="path270"
         style="fill:#1f6fa4;fill-opacity:1;fill-rule:nonzero;stroke:none"
         d="m 7498.18,10973.8 c -0.01,0.3 -0.01,0.5 -0.01,0.7 0,-0.2 0.01,-0.5 0.01,-0.7" /><path
         id="path272"
         style="fill:#00ace1;fill-opacity:1;fill-rule:nonzero;stroke:none"
         d="m 7498.19,10973.2 c -0.01,0.5 -0.02,0.9 -0.03,1.4 l 0.01,-0.1 c 0,-0.2 0,-0.4 0.01,-0.7 0,-0.2 0.01,-0.4 0.01,-0.6" /><path
         id="path274"
         style="fill:#1f6fa4;fill-opacity:1;fill-rule:nonzero;stroke:none"
         d="m 7498.13,10976.1 c 0,0.2 0,0.3 -0.01,0.5 0,0.2 0,0.3 -0.01,0.5 v 0.2 c 0.01,-0.4 0.02,-0.8 0.02,-1.2 m -0.04,2.4 -0.01,0.1 c 0,0.2 0,0.3 -0.01,0.5 0,0.1 -0.01,0.4 -0.01,0.5 0.01,-0.4 0.02,-0.7 0.03,-1.1" /><path
         id="path276"
         style="fill:#00ace1;fill-opacity:1;fill-rule:nonzero;stroke:none"
         d="m 7498.15,10975.4 c -0.01,0.4 -0.02,0.8 -0.03,1.2 0.01,-0.2 0.01,-0.3 0.01,-0.5 0.01,-0.2 0.01,-0.5 0.02,-0.7 m -0.04,1.7 c -0.01,0.5 -0.01,1 -0.03,1.5 l 0.01,-0.1 c 0,-0.4 0.01,-0.8 0.02,-1.2 v -0.2 m -0.04,2 c -0.01,0.4 -0.01,0.8 -0.02,1.2 0,-0.2 0.01,-0.5 0.01,-0.7 0,-0.1 0.01,-0.4 0.01,-0.5" /><path
         id="path278"
         style="fill:#1f6fa4;fill-opacity:1;fill-rule:nonzero;stroke:none"
         d="m 7498.03,10980.9 c 0,0.4 -0.01,0.7 -0.02,1.1 0.01,-0.3 0.02,-0.7 0.02,-1.1" /><path
         id="path280"
         style="fill:#00ace1;fill-opacity:1;fill-rule:nonzero;stroke:none"
         d="m 7498.03,10980.9 c -0.01,0.6 -0.02,1.1 -0.03,1.7 0,-0.3 0.01,-0.4 0.01,-0.6 0.01,-0.4 0.02,-0.7 0.02,-1.1 v 0" /><path
         id="path282"
         style="fill:#1f6fa4;fill-opacity:1;fill-rule:nonzero;stroke:none"
         d="m 7497.97,10983.6 c 0,0.3 -0.01,0.7 -0.02,1 0,0.1 0,0.1 0,0.1 -0.01,0.3 -0.01,0.5 -0.02,0.7 0.02,-0.6 0.03,-1.1 0.04,-1.8 m -0.06,2.8 c -0.01,0.5 -0.02,0.9 -0.03,1.4 0.01,-0.5 0.02,-0.9 0.03,-1.4" /><path
         id="path284"
         style="fill:#00ace1;fill-opacity:1;fill-rule:nonzero;stroke:none"
         d="m 7497.99,10983 c -0.01,0.5 -0.03,1.1 -0.04,1.6 0.01,-0.3 0.02,-0.7 0.02,-1 0.01,-0.2 0.01,-0.4 0.02,-0.6 m -0.04,1.7 c -0.03,1.2 -0.06,2.5 -0.09,3.7 0.01,-0.2 0.01,-0.4 0.02,-0.6 0.01,-0.5 0.02,-0.9 0.03,-1.4 0.01,-0.3 0.01,-0.6 0.02,-1 0.01,-0.2 0.01,-0.4 0.02,-0.7" /><path
         id="path286"
         style="fill:#1f6fa4;fill-opacity:1;fill-rule:nonzero;stroke:none"
         d="m 7497.85,10988.8 c -0.01,0.5 -0.02,0.8 -0.03,1.3 0.01,-0.5 0.02,-0.8 0.03,-1.3 m -0.06,2.4 c -0.03,1 -0.05,2.1 -0.08,3.1 0.03,-1 0.05,-2.1 0.08,-3.1 m -0.08,3.3 c -0.02,0.5 -0.03,1 -0.05,1.5 0.02,-0.5 0.03,-1 0.05,-1.5 m -0.07,2.3 c -0.01,0.5 -0.03,1 -0.04,1.5 0.01,-0.5 0.03,-1 0.04,-1.5 m -0.06,2.2 c -0.02,0.5 -0.03,1.1 -0.05,1.6 0.02,-0.5 0.03,-1 0.05,-1.6 m -0.06,1.9 c -0.05,1.9 -0.11,3.8 -0.17,5.7 0.06,-1.9 0.12,-3.8 0.17,-5.7 m -0.18,6.1 c -0.02,0.6 -0.04,1.2 -0.06,1.8 0.02,-0.6 0.04,-1.2 0.06,-1.8 m -0.07,2.1 c -0.09,2.6 -0.18,5.3 -0.27,8 0.09,-2.7 0.19,-5.4 0.27,-8 m -0.28,8.1 c -0.02,0.7 -0.04,1.3 -0.07,2 0.03,-0.7 0.05,-1.3 0.07,-2 m -0.07,2.1 c -0.1,2.8 -0.2,5.4 -0.31,8.1 0.11,-2.7 0.21,-5.4 0.31,-8.1 m -0.31,8.1 c -5.94,150.2 -24.74,296.8 -55.38,439.2 30.63,-142.4 49.44,-289 55.38,-439.2 m -55.49,439.8 c -0.11,0.4 -0.21,0.9 -0.32,1.4 0.11,-0.5 0.21,-0.9 0.32,-1.4 m -0.49,2.2 c -0.09,0.4 -0.2,0.9 -0.29,1.3 0.09,-0.4 0.2,-0.9 0.29,-1.3 m -0.61,2.8 c -0.07,0.3 -0.16,0.7 -0.23,1.1 0.08,-0.4 0.15,-0.7 0.23,-1.1 m -0.61,2.8 c -0.07,0.3 -0.11,0.5 -0.19,0.9 0.07,-0.3 0.13,-0.6 0.19,-0.9 m -0.51,2.4 c -0.06,0.2 -0.11,0.4 -0.16,0.7 0.05,-0.3 0.1,-0.5 0.16,-0.7 m -0.57,2.5 c -0.03,0.2 -0.05,0.3 -0.08,0.4 0.03,-0.1 0.05,-0.2 0.08,-0.4 m -1.14,5.2 c -0.02,0.1 -0.03,0.1 -0.05,0.2 0.03,-0.1 0.03,-0.1 0.05,-0.2" /><path
         id="path288"
         style="fill:#00ace1;fill-opacity:1;fill-rule:nonzero;stroke:none"
         d="m 7497.86,10988.6 c -15.85,643.3 -268.31,1227.5 -673.42,1669.5 -148.84,-34.3 -296.3,-72.3 -404.8,-156.5 -17.49,190.4 -44.38,379.9 -77.9,567.9 547.2,-360.5 948.29,-924.4 1095.4,-1584.2 0.02,-0.1 0.03,-0.1 0.05,-0.2 0.34,-1.6 0.72,-3.2 1.06,-4.8 0.03,-0.1 0.05,-0.2 0.08,-0.4 0.14,-0.6 0.27,-1.2 0.41,-1.8 0.05,-0.3 0.1,-0.5 0.16,-0.7 0.1,-0.5 0.22,-1.1 0.32,-1.5 0.08,-0.4 0.12,-0.6 0.19,-0.9 0.13,-0.6 0.26,-1.2 0.38,-1.7 0.07,-0.4 0.16,-0.8 0.23,-1.1 0.11,-0.5 0.21,-0.9 0.32,-1.5 0.09,-0.4 0.2,-0.9 0.29,-1.3 0.05,-0.2 0.12,-0.5 0.17,-0.8 0.11,-0.5 0.21,-1 0.32,-1.4 0.03,-0.2 0.08,-0.4 0.11,-0.6 30.64,-142.4 49.44,-289 55.38,-439.2 v 0 c 0.11,-2.7 0.21,-5.3 0.31,-8.1 0,0 0,-0.1 0,-0.1 0.03,-0.7 0.05,-1.3 0.07,-2 0.01,0 0.01,-0.1 0.01,-0.1 0.09,-2.7 0.18,-5.4 0.27,-8 0,-0.1 0.01,-0.2 0.01,-0.3 0.02,-0.6 0.04,-1.2 0.06,-1.8 0,-0.2 0.01,-0.3 0.01,-0.4 0.06,-1.9 0.12,-3.8 0.17,-5.7 0.01,0 0.01,-0.2 0.01,-0.3 0.02,-0.5 0.03,-1.1 0.05,-1.6 0.01,-0.3 0.01,-0.5 0.02,-0.7 0.01,-0.5 0.03,-1 0.04,-1.5 0.01,-0.3 0.02,-0.5 0.02,-0.8 0.02,-0.5 0.03,-1 0.05,-1.5 0,-0.1 0,-0.1 0,-0.2 0.03,-1 0.05,-2.1 0.08,-3.1 0.01,-0.4 0.02,-0.8 0.03,-1.1 0.01,-0.5 0.02,-0.8 0.03,-1.3 0,0 0.01,-0.2 0.01,-0.2" /><path
         id="path290"
         style="fill:#117fcc;fill-opacity:1;fill-rule:nonzero;stroke:none"
         d="m 6754.17,9116.48 c -288.8,78.95 -553.63,276.92 -669.12,560.12 -30.8,77.49 -30.8,185.83 15.51,263.31 92.83,185.99 155.07,402.89 15.61,573.19 -142.2,170.8 -406.32,329.8 -540.1,505.7 243.31,55.2 475.38,127.6 663.95,299.9 92.94,77.3 170.58,201.2 185.99,325.3 24.94,286.6 19.77,573.1 -6.37,857.6 108.5,84.2 255.96,122.2 404.8,156.5 405.11,-442 657.57,-1026.2 673.42,-1669.5 0,-0.1 0,-0.1 0,-0.2 0.03,-1.2 0.06,-2.5 0.09,-3.7 0,0 0,0 0,-0.1 0.01,-0.5 0.03,-1.1 0.04,-1.6 0,-0.1 0.01,-0.3 0.01,-0.4 0.01,-0.6 0.02,-1.1 0.03,-1.7 0.01,-0.2 0.01,-0.4 0.02,-0.6 0.01,-0.4 0.01,-0.8 0.02,-1.2 0.01,-0.2 0.01,-0.3 0.01,-0.5 0.02,-0.5 0.02,-1 0.03,-1.5 0.01,-0.2 0.01,-0.3 0.01,-0.5 0.01,-0.4 0.02,-0.8 0.03,-1.2 0,-0.3 0.01,-0.5 0.01,-0.8 0.01,-0.5 0.02,-0.9 0.03,-1.4 0.01,-0.3 0.01,-0.6 0.02,-0.9 0,-0.4 0.01,-0.7 0.02,-1 0,-0.2 0,-0.4 0,-0.5 0.02,-0.6 0.03,-1.2 0.04,-1.8 0,-0.1 0,-0.2 0,-0.4 0.01,-0.3 0.01,-0.5 0.02,-0.9 0,-0.3 0.01,-0.6 0.01,-1 0,0 0.01,0 0.01,-0.1 0,-0.4 0.01,-0.8 0.02,-1.2 0,-0.3 0.01,-0.7 0.01,-1 0.01,-0.4 0.01,-0.8 0.02,-1.1 0,-0.1 0,-0.1 0,-0.1 0.01,-0.7 0.02,-1.3 0.03,-2 0,-0.4 0.01,-0.8 0.01,-1.1 0.01,-0.5 0.02,-0.9 0.02,-1.4 0.01,-0.3 0.01,-0.6 0.02,-1 0,-0.5 0.01,-1 0.01,-1.5 0,0 0,0 0,0 0.01,-0.3 0.01,-0.5 0.01,-0.8 0.01,-0.7 0.02,-1.5 0.03,-2.2 0,-0.2 0.01,-0.6 0.01,-0.8 0,-0.5 0.01,-1 0.02,-1.6 0,-0.2 0,-0.4 0,-0.6 0,-0.1 0,-0.1 0,-0.3 0.01,-0.6 0.02,-1.1 0.02,-1.8 0,-0.1 0,-0.3 0.01,-0.5 0,-0.7 0.01,-1.5 0.01,-2.2 0.01,-0.1 0.01,-0.1 0.01,-0.2 0,-0.2 0,-0.4 0,-0.7 0.01,-0.5 0.01,-1.1 0.01,-1.6 0.01,-0.2 0.01,-0.5 0.01,-0.7 v 0 c 0,-0.8 0.01,-1.4 0.01,-2.2 0,0 0,-0.1 0,-0.2 0.01,-0.8 0.01,-1.5 0.02,-2.4 0,0 0,-0.2 0,-0.3 0,-0.1 0,-0.2 0,-0.3 0,-0.6 0.01,-1.2 0.01,-1.7 0,-0.3 0,-0.6 0,-0.8 0,-0.8 0.01,-1.5 0.01,-2.2 0,-0.1 0,-0.1 0,-0.2 0,-0.7 0,-1.5 0.01,-2.3 0,-0.2 0,-0.4 0,-0.6 0,-0.1 0,-0.1 0,-0.1 0,-0.6 0,-1.2 0,-1.8 0,-0.1 0,-0.2 0,-0.3 0,-0.2 0,-0.2 0,-0.4 0,-0.7 0,-1.6 0,-2.3 0,-705 -284.56,-1343.69 -744.48,-1807.62" /><path
         id="path292"
         style="fill:#613fa2;fill-opacity:1;fill-rule:nonzero;stroke:none"
         d="m 9332.05,10681 c -46.42,0 -84.15,37.7 -84.15,84.2 0,46.4 37.73,84 84.15,84 46.42,0 84.15,-37.6 84.15,-84 0,-46.5 -37.73,-84.2 -84.15,-84.2 z m -352.89,0 c -46.41,0 -84.04,37.7 -84.04,84.2 0,46.4 37.63,84 84.04,84 46.52,0 84.05,-37.6 84.05,-84 0,-46.5 -37.53,-84.2 -84.05,-84.2 z m -352.88,0 c -46.31,0 -84.04,37.7 -84.04,84.2 0,46.4 37.73,84 84.04,84 46.42,0 84.37,-37.6 84.37,-84 0,-46.5 -37.95,-84.2 -84.37,-84.2 z m -352.78,0 c -46.53,0 -84.04,37.7 -84.04,84.2 0,46.4 37.51,84 84.04,84 46.3,0 84.26,-37.6 84.26,-84 0,-46.5 -37.96,-84.2 -84.26,-84.2 z m -352.88,0 c -46.31,0 -84.05,37.7 -84.05,84.2 0,46.4 37.74,84 84.05,84 46.41,0 84.16,-37.6 84.16,-84 0,-46.5 -37.75,-84.2 -84.16,-84.2 z m -352.67,0 c -46.63,0 -84.38,37.7 -84.15,84.2 0,46.4 37.52,84 84.15,84 46.31,0 83.93,-37.6 83.93,-84 0,-46.5 -37.62,-84.2 -83.93,-84.2 z m -353,0 c -46.52,0 -84.15,37.7 -84.15,84.2 0,46.4 37.63,84 84.15,84 46.42,0 84.16,-37.6 84.16,-84 0,-46.5 -37.74,-84.2 -84.16,-84.2 z m -352.77,0 c -46.53,0 -84.05,37.7 -84.05,84.2 0,46.4 37.52,84 84.05,84 46.31,0 84.15,-37.6 84.15,-84 0,-46.5 -37.84,-84.2 -84.15,-84.2 z m 2644.79,312.6 H 6616.33 c -71.04,0 -128.51,-57.4 -128.51,-128.5 V 6544.9 c 0,-71 57.47,-128.6 128.51,-128.6 h 2890.64 c 71.04,0 128.29,57.6 128.29,128.4 l 0.22,4320.4 c -0.22,71.1 -57.47,128.5 -128.51,128.5" /><path
         id="path294"
         style="fill:#5a379c;fill-opacity:1;fill-rule:nonzero;stroke:none"
         d="m 9332.05,10681 c -46.42,0 -84.15,37.7 -84.15,84.2 0,46.4 37.73,84 84.15,84 46.42,0 84.15,-37.6 84.15,-84 0,-46.5 -37.73,-84.2 -84.15,-84.2 z m -352.89,0 c -46.41,0 -84.04,37.7 -84.04,84.2 0,46.4 37.63,84 84.04,84 46.52,0 84.05,-37.6 84.05,-84 0,-46.5 -37.53,-84.2 -84.05,-84.2 z m 527.81,312.6 h -727.02 c 76.12,-735.9 179.47,-1521.2 -217.66,-2169.9 -138.7,-231 -477.49,-246.5 -754.78,-308.1 -215.7,-46.3 -400.5,-200.3 -339,-431.4 77.11,-215.6 323.49,-508.4 123.3,-662.4 -282.94,-203.6 -740.47,-240.9 -1103.99,-99.6 v -777.3 c 0,-71 57.47,-128.6 128.51,-128.6 h 2890.64 c 71.04,0 128.29,57.6 128.29,128.4 l 0.22,4320.4 c -0.22,71.1 -57.47,128.5 -128.51,128.5" /><path
         id="path296"
         style="fill:#27293a;fill-opacity:1;fill-rule:nonzero;stroke:none"
         d="m 6785.83,10723.8 v 40.7 c 125.91,0 228.28,102.5 228.28,228.4 0,125.9 -102.37,228.3 -228.28,228.3 -126.02,0 -228.39,-102.4 -228.39,-228.3 0,-5.2 0,-10.4 0.32,-15.5 l -40.45,-2.8 c -0.43,6 -0.64,12.1 -0.64,18.3 0,148.4 120.81,269 269.16,269 148.35,0 268.84,-120.6 268.84,-269 0,-148.4 -120.49,-269.1 -268.84,-269.1" /><path
         id="path298"
         style="fill:#27293a;fill-opacity:1;fill-rule:nonzero;stroke:none"
         d="m 7138.5,10723.8 v 40.7 c 125.8,0 228.29,102.5 228.29,228.4 0,125.9 -102.49,228.3 -228.29,228.3 -126.02,0 -228.39,-102.4 -228.39,-228.3 h -40.88 c 0,148.4 120.92,269 269.27,269 148.14,0 268.95,-120.6 268.95,-269 0,-148.4 -120.81,-269.1 -268.95,-269.1" /><path
         id="path300"
         style="fill:#27293a;fill-opacity:1;fill-rule:nonzero;stroke:none"
         d="m 7491.05,10723.8 v 40.7 c 125.81,0 228.39,102.5 228.39,228.4 0,125.9 -102.58,228.3 -228.39,228.3 -126,0 -228.37,-102.4 -228.37,-228.3 H 7222 c 0,148.4 120.71,269 269.05,269 148.36,0 269.17,-120.6 269.17,-269 0,-148.4 -120.81,-269.1 -269.17,-269.1" /><path
         id="path302"
         style="fill:#27293a;fill-opacity:1;fill-rule:nonzero;stroke:none"
         d="m 7843.84,10723.8 v 40.7 c 125.8,0 228.17,102.5 228.17,228.4 0,125.9 -102.37,228.3 -228.17,228.3 -126.02,0 -228.61,-102.4 -228.61,-228.3 h -40.56 c 0,148.4 120.59,269 269.17,269 148.13,0 268.94,-120.6 268.94,-269 0,-148.4 -120.81,-269.1 -268.94,-269.1" /><path
         id="path304"
         style="fill:#27293a;fill-opacity:1;fill-rule:nonzero;stroke:none"
         d="m 8196.29,10723.8 v 40.7 c 126.01,0 228.5,102.5 228.5,228.4 0,125.9 -102.49,228.3 -228.5,228.3 -125.69,0 -228.39,-102.4 -228.39,-228.3 h -40.56 c 0,148.4 120.59,269 268.95,269 148.46,0 268.94,-120.6 268.94,-269 0,-148.4 -120.48,-269.1 -268.94,-269.1" /><path
         id="path306"
         style="fill:#27293a;fill-opacity:1;fill-rule:nonzero;stroke:none"
         d="m 8548.96,10723.8 v 40.7 c 126.01,0 228.38,102.5 228.38,228.4 0,125.9 -102.37,228.3 -228.38,228.3 -125.81,0 -228.29,-102.4 -228.29,-228.3 h -40.88 c 0,148.4 120.7,269 269.17,269 148.34,0 269.06,-120.6 269.06,-269 0,-148.4 -120.72,-269.1 -269.06,-269.1" /><path
         id="path308"
         style="fill:#27293a;fill-opacity:1;fill-rule:nonzero;stroke:none"
         d="m 8901.62,10723.8 v 40.7 c 126.03,0 228.39,102.5 228.39,228.4 0,125.9 -102.36,228.3 -228.39,228.3 -125.9,0 -228.27,-102.4 -228.27,-228.3 h -40.78 c 0,148.4 120.7,269 269.05,269 148.36,0 269.17,-120.6 269.17,-269 0,-148.4 -120.81,-269.1 -269.17,-269.1" /><path
         id="path310"
         style="fill:#27293a;fill-opacity:1;fill-rule:nonzero;stroke:none"
         d="m 9254.18,10723.8 v 40.7 c 126.03,0 228.51,102.5 228.51,228.4 0,125.9 -102.48,228.3 -228.51,228.3 -125.79,0 -228.38,-102.4 -228.38,-228.3 h -40.46 c 0,148.4 120.7,269 268.84,269 148.57,0 269.17,-120.6 269.17,-269 0,-148.4 -120.6,-269.1 -269.17,-269.1" /><path
         id="path312"
         style="fill:#fab819;fill-opacity:1;fill-rule:nonzero;stroke:none"
         d="m 9143.46,9471.48 c 0,-397.48 -484.32,-719.78 -1081.75,-719.78 -597.54,0 -1081.87,322.3 -1081.87,719.78 0,397.56 484.33,719.72 1081.87,719.72 597.43,0 1081.75,-322.16 1081.75,-719.72" /><path
         id="path314"
         style="fill:#f9a90c;fill-opacity:1;fill-rule:nonzero;stroke:none"
         d="m 8369.7,10161.5 c 138.04,-172.95 275.66,-367.5 177.19,-552.18 -61.7,-154.01 -323.6,-46.2 -431.28,-184.91 -77,-92.45 107.68,-215.59 46.19,-354.31 -46.19,-92.4 -123.19,-123.2 -215.59,-138.7 -450.27,-73.4 -559.15,7.8 -811.18,168.7 189.35,-208.7 533.34,-348.4 926.68,-348.4 597.43,0 1081.75,322.3 1081.75,719.78 0,326.37 -326.54,601.72 -773.76,690.02" /><path
         id="path316"
         style="fill:#37bdc5;fill-opacity:1;fill-rule:nonzero;stroke:none"
         d="m 9632.56,6132.7 h 1152.34 c 454.6,0 648.2,121.3 648.2,558.9 v 1443.3 c 0,683.3 -229.8,1237.24 -851.1,1237.24 h -641.56 c -621.29,0 -851.31,-553.94 -851.31,-1237.24 V 6691.6 c 0,-420.2 175.46,-558.9 543.43,-558.9" /><path
         id="path318"
         style="fill:#26abb7;fill-opacity:1;fill-rule:nonzero;stroke:none"
         d="m 10691.3,9366.12 c 165.5,-502.82 297.7,-1036.32 179.8,-1563.02 -55,-240.8 -346.9,-160.5 -520.2,-270.9 -73.1,-40.1 -82.3,-150.5 -54.8,-240.9 82.1,-180.7 292.1,-421.5 118.6,-592.1 -346.8,-371.2 -921.71,-311.1 -1259.42,30.1 -26.89,23.6 -47.94,52.4 -66.15,84.1 v -121.8 c 0,-420.2 175.46,-558.9 543.43,-558.9 h 1152.34 c 454.6,0 648.2,121.3 648.2,558.9 v 1443.3 c 0,641.8 -202.6,1169.19 -741.8,1231.22" /><path
         id="path320"
         style="fill:#fffaf2;fill-opacity:1;fill-rule:nonzero;stroke:none"
         d="m 9800.86,6407.6 h 843.84 c 333.2,0 475,94.8 475,436.6 v 1127.9 c 0,534 -168.4,966.8 -623.6,966.8 h -469.8 c -455.13,0 -623.55,-432.8 -623.55,-966.8 V 6844.2 c 0,-328.2 128.4,-436.6 398.11,-436.6" /><path
         id="path322"
         style="fill:#ddeaee;fill-opacity:1;fill-rule:nonzero;stroke:none"
         d="m 10576.2,8934.1 c 121.3,-392.9 218.1,-809.6 131.8,-1221.1 -40.2,-188.1 -254.2,-125.6 -381.1,-211.7 -53.4,-31.4 -60.1,-117.7 -40.2,-188.3 60.3,-141.1 214,-329.3 87,-462.7 -254.1,-290 -675.2,-243.1 -922.68,23.6 -19.63,18.5 -35.14,41 -48.27,65.6 v -95.3 c 0,-328.2 128.4,-436.6 398.11,-436.6 h 843.84 c 333.2,0 475,94.8 475,436.6 v 1127.9 c 0,501.6 -148.4,913.6 -543.5,962" /><path
         id="path324"
         style="fill:#ed186b;fill-opacity:1;fill-rule:nonzero;stroke:none"
         d="M 10802,9752.84 H 9712.27 V 9341.12 H 10802 v 411.72" /><path
         id="path326"
         style="fill:#ec0c5f;fill-opacity:1;fill-rule:nonzero;stroke:none"
         d="m 10638.1,9752.84 c 2.5,-70.7 -5.2,-138.91 -77.3,-150.9 -39.4,-23.53 -366.4,21.63 -377.8,-36 -7.7,-39.48 27.5,-58.89 54,-90.02 56.9,-74.88 -344.5,-46.52 -524.73,-37.3 v -97.5 H 10802 v 411.72 h -163.9" /><path
         id="path328"
         style="fill:#aa0a3a;fill-opacity:1;fill-rule:nonzero;stroke:none"
         d="m 9795.28,9341.12 h 43.4805 v 411.719 H 9795.28 Z" /><path
         id="path330"
         style="fill:#aa0a3a;fill-opacity:1;fill-rule:nonzero;stroke:none"
         d="m 9921.08,9341.12 h 43.4883 v 411.719 H 9921.08 Z" /><path
         id="path332"
         style="fill:#aa0a3a;fill-opacity:1;fill-rule:nonzero;stroke:none"
         d="m 10047,9341.12 h 43.5 v 411.719 h -43.5 z" /><path
         id="path334"
         style="fill:#aa0a3a;fill-opacity:1;fill-rule:nonzero;stroke:none"
         d="m 10172.7,9341.12 h 43.5 v 411.719 h -43.5 z" /><path
         id="path336"
         style="fill:#aa0a3a;fill-opacity:1;fill-rule:nonzero;stroke:none"
         d="m 10298.5,9341.12 h 43.5 v 411.719 h -43.5 z" /><path
         id="path338"
         style="fill:#aa0a3a;fill-opacity:1;fill-rule:nonzero;stroke:none"
         d="m 10424.2,9341.12 h 43.5 v 411.719 h -43.5 z" /><path
         id="path340"
         style="fill:#aa0a3a;fill-opacity:1;fill-rule:nonzero;stroke:none"
         d="m 10550.1,9341.12 h 43.5 v 411.719 h -43.5 z" /><path
         id="path342"
         style="fill:#aa0a3a;fill-opacity:1;fill-rule:nonzero;stroke:none"
         d="m 10675.8,9341.12 h 43.398 v 411.719 h -43.398 z" /><path
         id="path344"
         style="fill:#ed186b;fill-opacity:1;fill-rule:nonzero;stroke:none"
         d="m 10563.6,9752.84 v 121.62 c 0,319.54 -110.4,678.54 -255.6,796.74 h -109.4 C 10053.2,10553 9942.82,10194 9942.82,9874.46 v -121.62 h 620.78" /><path
         id="path346"
         style="fill:#ec0c5f;fill-opacity:1;fill-rule:nonzero;stroke:none"
         d="m 10308,10671.2 h -28.9 c 66.3,-188.8 185,-378.9 137.8,-580.1 -18,-71.5 -197.9,-28.5 -269.8,-85.9 -72.1,-71.64 161.8,-128.94 53.9,-186.25 -81.4,-45.4 -170.3,-64.21 -258.18,-63.29 v -2.82 h 620.78 v 121.62 c 0,319.54 -110.4,678.54 -255.6,796.74" /></g></g></svg>