<?xml version="1.0" encoding="UTF-8" standalone="no"?>
<svg
   xmlns:dc="http://purl.org/dc/elements/1.1/"
   xmlns:cc="http://creativecommons.org/ns#"
   xmlns:rdf="http://www.w3.org/1999/02/22-rdf-syntax-ns#"
   xmlns:svg="http://www.w3.org/2000/svg"
   xmlns="http://www.w3.org/2000/svg"
   viewBox="0 0 4196 2666.6667"
   height="1000"
   width="1200"
   xml:space="preserve"
   id="svg2"
   version="1.1"><metadata
     id="metadata8"><rdf:RDF><cc:Work
         rdf:about=""><dc:format>image/svg+xml</dc:format><dc:type
           rdf:resource="http://purl.org/dc/dcmitype/StillImage" /></cc:Work></rdf:RDF></metadata><defs
     id="defs6" /><g
     transform="matrix(1.3333333,0,0,-1.3333333,0,2666.6667)"
     id="g10"><g
       transform="scale(0.1)"
       id="g12"><g
         transform="scale(1.93067)"
         id="g14"><path
           id="path16"
           style="fill:#ffffff;fill-opacity:1;fill-rule:nonzero;stroke:none"
           d="M 16300,0 H 0 V 10359.1 H 16300 V 0" /></g><g
         transform="scale(1.86264)"
         id="g18"><path
           id="path20"
           style="fill:#dce9f8;fill-opacity:1;fill-rule:nonzero;stroke:none"
           d="M 15272.5,416.398 H 8095.59 c -33.83,0 -67.27,1.663 -100.24,4.884 H 3621.69 c -519.1,0 -939.92,434.277 -939.92,969.968 v 221.62 c 0,641.99 -504.3,1162.38 -1126.37,1162.38 h -0.01 c -637.695,0 -1154.66,533.54 -1154.66,1191.58 v 0.06 c 0,658.09 516.965,1191.58 1154.66,1191.58 h 189.16 c 622.09,0 1126.39,520.4 1126.39,1162.38 v 0 c 0,535.71 420.81,969.98 939.92,969.98 h 1244.72 c -311.73,191.55 -522.96,561.45 -522.96,986.4 v 0.01 c 0,621.62 451.91,1125.55 1009.39,1125.55 h 7085.89 c 500.8,0 906.8,-452.76 906.8,-1011.24 0,-669.29 486.6,-1211.85 1086.8,-1211.85 h 182.5 c 615.3,0 1114.1,-556.18 1114.1,-1242.27 v 0 c 0,-686.08 -498.8,-1242.28 -1114.1,-1242.28 -600.2,0 -1086.7,-542.56 -1086.7,-1211.82 v -231.07 c 0,-314.39 -128.7,-595.28 -330.6,-780.72 h 1885.8 c 567.5,0 1027.5,-460.1 1027.5,-1027.57 0,-567.528 -460,-1027.572 -1027.5,-1027.572 M 3098.16,3202.81 c -70.13,0 -126.96,-55.73 -126.96,-124.5 v -79.02 c 0,-68.78 56.83,-124.51 126.96,-124.51 l 870.83,0.33 h 520.9 v 19.97 h -3.3 c 0,0 -50.81,22.92 -50.81,144.31 0,96.37 50.81,143.13 50.81,143.13 v 0 0 h -1.77 c 1.06,0.05 1.62,0.05 1.62,0.05 l 3.45,0.06 v 19.86 h -45.96 c -1.84,0.21 -3.71,0.32 -5.61,0.32 h -192.49 c 70.15,0 127.01,44.19 127.01,98.73 v 62.71 c 0,51.43 -50.49,93.63 -115.01,98.36 h 243 v 15.94 h -2.91 c 0,0 -44.89,18.31 -44.89,115.32 0,76.99 44.89,114.3 44.89,114.3 v 0 0 h -1.61 c 0.96,0.05 1.47,0.05 1.47,0.05 l 3.05,0.06 v 15.89 h -40.59 c -1.63,0.16 -3.29,0.21 -4.97,0.21 h -1184.1 c -61.95,0 -112.17,-44.5 -112.17,-99.43 v -63.13 c 0,-51.01 43.29,-93.04 99.06,-98.79 h -352.93 c -1.91,0 -3.79,-0.05 -5.63,-0.21 h -45.95 v -15.78 l 3.44,-0.06 c 0,0 0.59,0 1.69,-0.05 h -1.83 c 0,0 50.83,-37.05 50.83,-113.55 0,-96.32 -50.83,-114.51 -50.83,-114.51 h -3.3 v -15.84 h 508.47 l 883.81,-0.22 H 3098.16 m 9314.54,5480.73 c -16.9,0 -33.9,-0.53 -51,-1.61 -441.8,-27.79 -777.5,-409.22 -749.8,-851.95 26.7,-425.64 379.4,-752.95 799.3,-752.95 16.8,0 33.9,0.53 50.9,1.61 441.8,27.78 777.5,409.22 749.8,851.95 -26.7,425.63 -379.4,752.95 -799.2,752.95" /></g><path
         id="path22"
         style="fill:#4a6cbd;fill-opacity:1;fill-rule:nonzero;stroke:none"
         d="m 9206.42,6677.5 c -40.35,0.1 -73.01,22.2 -72.94,49.3 0.06,27.1 32.83,49 73.19,49 40.35,-0.1 73,-22.2 72.93,-49.3 -0.06,-27.2 -32.83,-49.1 -73.18,-49 z m 0.46,184.6 c 28.6,-0.1 51.76,-14.4 51.71,-32 -0.04,-17.6 -23.26,-31.8 -51.87,-31.7 -28.61,0.1 -51.76,14.4 -51.72,32 0.04,17.6 23.27,31.8 51.88,31.7 z m 0.09,38.9 c -53.3,0.1 -96.66,-61.4 -96.84,-137.3 -0.19,-76 42.86,-137.7 96.16,-137.8 53.3,-0.1 96.66,61.3 96.85,137.3 0.19,76 -42.87,137.6 -96.17,137.8" /><path
         id="path24"
         style="fill:#663199;fill-opacity:1;fill-rule:nonzero;stroke:none"
         d="m 8987.87,6597.3 c -20.26,-43.7 -30.88,-91.2 -31,-139.4 L 8954.4,5451 c -0.15,-60.8 49.53,-110.2 110.96,-110.4 l 575.77,-1.4 c 61.43,-0.1 111.35,49 111.5,109.8 l 2.47,1007 c 0.12,48.1 -10.27,95.7 -30.31,139.5 l -736.92,1.8" /><path
         id="path26"
         style="fill:#663199;fill-opacity:1;fill-rule:nonzero;stroke:none"
         d="m 8987.87,6597.3 c -20.26,-43.7 -30.88,-91.2 -31,-139.4 L 8954.4,5451 c -0.15,-60.8 49.53,-110.2 110.96,-110.4 l 575.77,-1.4 c 61.43,-0.1 111.35,49 111.5,109.8 l 2.47,1007 c 0.12,48.1 -10.27,95.7 -30.31,139.5 l -736.92,1.8" /><path
         id="path28"
         style="fill:#f35f52;fill-opacity:1;fill-rule:nonzero;stroke:none"
         d="m 9755.16,6456 -2.47,-1007 c -0.15,-60.8 -50.13,-110 -111.5,-109.8 l -575.77,1.4 c -61.51,0.1 -111.11,49.6 -110.97,110.4 l 2.48,1006.9 c 0.12,48.1 10.7,95.6 30.96,139.4 l 736.86,-1.9 c 20.04,-43.8 30.53,-91.4 30.41,-139.4" /><path
         id="path30"
         style="fill:#f47374;fill-opacity:1;fill-rule:nonzero;stroke:none"
         d="m 9107.07,5450.6 2.47,1006.9 c 0.11,48.2 10.73,95.7 30.99,139.4 l -152.66,0.4 c -20.26,-43.7 -30.88,-91.2 -31,-139.4 L 8954.4,5451 c -0.15,-60.8 49.53,-110.2 110.96,-110.4 l 152.66,-0.3 c -61.43,0.1 -111.11,49.5 -110.95,110.3" /><path
         id="path32"
         style="fill:#b14a40;fill-opacity:1;fill-rule:nonzero;stroke:none"
         d="m 9755.16,6456 -2.47,-1007 c -0.15,-60.8 -50.13,-110 -111.5,-109.8 l -235.41,0.5 c 62.02,-0.1 112.53,49.1 112.67,109.9 l 2.47,1007 c 0.12,48 -10.49,95.6 -30.67,139.4 l 234.5,-0.6 c 20.04,-43.8 30.53,-91.4 30.41,-139.4" /><path
         id="path34"
         style="fill:#1b375a;fill-opacity:1;fill-rule:nonzero;stroke:none"
         d="m 9724.79,6595.5 -736.99,1.8 c 0.08,32.2 26.51,58.2 59.03,58.1 l 619.21,-1.5 c 32.52,-0.1 58.83,-26.2 58.75,-58.4" /><path
         id="path36"
         style="fill:#375491;fill-opacity:1;fill-rule:nonzero;stroke:none"
         d="m 9753.17,5647.8 -798.23,2 -0.31,-125.1 798.24,-2 0.3,125.1" /><path
         id="path38"
         style="fill:#82a9de;fill-opacity:1;fill-rule:nonzero;stroke:none"
         d="m 8262.57,6921.5 h 88.05 c -14.41,9.8 -32.43,15.7 -52.03,15.7 H 6093.03 c -115.39,0 -208.94,-82.9 -208.94,-185.2 v -117.6 c 0,-102.3 93.55,-185.2 208.94,-185.2 l 2180.89,0.6 -11.35,471.7" /><path
         id="path40"
         style="fill:#4a6cbd;fill-opacity:1;fill-rule:nonzero;stroke:none"
         d="m 7010.43,6936.8 c -110.35,0 -199.81,-79.3 -199.81,-177.1 v -133 c 0,-97.8 89.46,-177.1 199.81,-177.1 h 1373.01 v 29.7 h -5.67 l -349.05,29.3 -70.55,245.4 c 0,0 136.17,135.5 145.06,139 8.87,3.5 274.54,14.1 274.54,14.1 l 5.67,0.1 v 29.6 H 7010.43" /><path
         id="path42"
         style="fill:#f7d99b;fill-opacity:1;fill-rule:nonzero;stroke:none"
         d="m 8294.4,6694.1 c 0,143.4 83.62,212.9 83.62,212.9 H 7038.55 c -101.36,0 -183.53,-72.8 -183.53,-162.6 V 6642 c 0,-89.8 82.17,-162.7 183.53,-162.7 h 1339.47 c 0,0 -83.62,34.1 -83.62,214.8" /><path
         id="path44"
         style="fill:#4366ba;fill-opacity:1;fill-rule:nonzero;stroke:none"
         d="m 6855.07,6638.2 c 0,0.1 0,0.1 0,0.1 0,0 0,0 0,-0.1 m -0.02,1 c 0,0.2 -0.01,0.3 -0.01,0.5 0,-0.2 0.01,-0.3 0.01,-0.5 m -0.01,0.8 c -0.01,0.3 -0.01,0.6 -0.01,0.9 0,-0.3 0,-0.6 0.01,-0.9 m -0.01,1.1 c -0.01,0.3 -0.01,0.6 -0.01,0.9 v 0 c 0,-0.3 0,-0.6 0.01,-0.9" /><path
         id="path46"
         style="fill:#cacb9a;fill-opacity:1;fill-rule:nonzero;stroke:none"
         d="m 6860.37,6603 c -3.15,11.3 -4.98,23.1 -5.3,35.2 0,0.1 0,0.1 0,0.1 -0.01,0.3 -0.01,0.6 -0.02,0.9 0,0.2 -0.01,0.3 -0.01,0.5 0,0.1 0,0.2 0,0.3 -0.01,0.3 -0.01,0.6 -0.01,0.9 0,0.1 0,0.1 0,0.2 -0.01,0.3 -0.01,0.6 -0.01,0.9 v 102.4 c 0,89.8 82.17,162.6 183.53,162.6 h 1339.47 v 0 c 0,0 -836.24,-10.5 -1221.06,-81.3 C 6992.13,6795.3 6905.54,6701 6860.37,6603" /><path
         id="path48"
         style="fill:#59c69f;fill-opacity:1;fill-rule:nonzero;stroke:none"
         d="m 8226.26,5945.9 h 99.64 c -16.3,12.4 -36.69,19.8 -58.88,19.8 H 5770.76 c -130.62,0 -236.48,-103.8 -236.48,-231.9 v -147.2 c 0,-128.1 105.86,-231.9 236.48,-231.9 l 2468.34,0.9 -12.84,590.3" /><path
         id="path50"
         style="fill:#43927a;fill-opacity:1;fill-rule:nonzero;stroke:none"
         d="m 6809.07,5965.1 c -124.89,0 -226.14,-99.3 -226.14,-221.7 V 5577 c 0,-122.4 101.25,-221.7 226.14,-221.7 h 1553.99 v 37.2 h -6.42 l -395.06,36.7 -79.85,307.1 c 0,0 154.12,169.7 164.17,174.1 10.05,4.3 310.74,17.6 310.74,17.6 l 6.42,0.1 v 37 H 6809.07" /><path
         id="path52"
         style="fill:#f7d99b;fill-opacity:1;fill-rule:nonzero;stroke:none"
         d="m 8262.28,5661.3 c 0,179.5 94.65,266.6 94.65,266.6 H 6840.9 c -114.72,0 -207.72,-91.2 -207.72,-203.7 v -128 c 0,-112.5 93,-203.7 207.72,-203.7 h 1516.03 c 0,0 -94.65,42.7 -94.65,268.8" /><path
         id="path54"
         style="fill:#3c8777;fill-opacity:1;fill-rule:nonzero;stroke:none"
         d="m 6633.19,5593.8 v 0 0 m 0,0.7 v 0.1 -0.1 m -0.01,0.7 c 0,0.1 0,0.2 0,0.2 0,0 0,-0.1 0,-0.2" /><path
         id="path56"
         style="fill:#cacb9a;fill-opacity:1;fill-rule:nonzero;stroke:none"
         d="m 6639.24,5547.3 c -3.75,14.9 -5.86,30.5 -6.05,46.5 v 0 c 0,0.2 0,0.5 0,0.7 v 0.1 c -0.01,0.2 -0.01,0.4 -0.01,0.6 0,0.1 0,0.2 0,0.2 0,0.3 0,0.5 0,0.8 v 0 128 c 0,112.5 93,203.7 207.72,203.7 h 1516.03 v 0 c 0,0 -946.47,-13.2 -1382.01,-101.8 -186.56,-38 -284.55,-156.1 -335.68,-278.8" /><path
         id="path58"
         style="fill:#f35f52;fill-opacity:1;fill-rule:nonzero;stroke:none"
         d="m 5452,6434.8 h -99.68 c 16.3,9.7 36.71,15.6 58.9,15.6 h 2497.25 c 130.66,0 236.57,-82.4 236.57,-184 v -116.8 c 0,-101.6 -105.91,-183.9 -236.57,-183.9 l -2469.32,0.6 12.85,468.5" /><path
         id="path60"
         style="fill:#b14a40;fill-opacity:1;fill-rule:nonzero;stroke:none"
         d="m 6869.74,6450 c 124.95,0 226.24,-78.8 226.24,-175.9 V 6142 c 0,-97.2 -101.29,-175.9 -226.24,-175.9 h -1554.6 v 29.5 h 6.42 l 395.22,29.1 79.88,243.7 c 0,0 -154.18,134.7 -164.23,138.1 -10.06,3.5 -310.87,14 -310.87,14 l -6.42,0.1 v 29.4 h 1554.6" /><path
         id="path62"
         style="fill:#f7d99b;fill-opacity:1;fill-rule:nonzero;stroke:none"
         d="m 5415.97,6208.9 c 0,142.5 -94.68,211.5 -94.68,211.5 H 6837.9 c 114.76,0 207.81,-72.3 207.81,-161.6 v -101.6 c 0,-89.2 -93.05,-161.6 -207.81,-161.6 H 5321.29 c 0,0 94.68,33.9 94.68,213.3" /><path
         id="path64"
         style="fill:#91433c;fill-opacity:1;fill-rule:nonzero;stroke:none"
         d="m 7045.69,6155.3 c 0,0 0,0 0,0.1 0,-0.1 0,-0.1 0,-0.1 m 0.01,0.6 v 0.1 -0.1 m 0,0.6 v 0.1 -0.1" /><path
         id="path66"
         style="fill:#cacb9a;fill-opacity:1;fill-rule:nonzero;stroke:none"
         d="m 7039.64,6118.4 c -51.15,97.4 -149.18,191.1 -335.8,221.2 -435.71,70.4 -1382.55,80.8 -1382.55,80.8 H 6837.9 c 114.76,0 207.81,-72.3 207.81,-161.6 v -101.6 0 c 0,-0.2 -0.01,-0.4 -0.01,-0.6 v -0.1 c 0,-0.2 0,-0.3 0,-0.5 v -0.1 c 0,-0.2 -0.01,-0.4 -0.01,-0.5 0,-0.1 0,-0.1 0,-0.1 -0.19,-12.7 -2.3,-25 -6.05,-36.9" /><path
         id="path68"
         style="fill:#1e4150;fill-opacity:1;fill-rule:nonzero;stroke:none"
         d="m 13604,809.398 -234.1,44.403 1011.6,5365.799 234.2,-44.4 L 13604,809.398" /><g
         transform="scale(1.32825)"
         id="g70"><path
           id="path72"
           style="fill:#1e4150;fill-opacity:1;fill-rule:nonzero;stroke:none"
           d="m 16088,591.003 h 212 l -790.1,4091.547 -176.2,-33.43 754.3,-4058.117" /></g><g
         transform="scale(1.01195)"
         id="g74"><path
           id="path76"
           style="fill:#1e4150;fill-opacity:1;fill-rule:nonzero;stroke:none"
           d="m 16021.7,775.729 h 278.3 l -1037,5370.421 -231.4,-43.88 990.1,-5326.541" /></g><g
         transform="scale(1.21563)"
         id="g78"><path
           id="path80"
           style="fill:#1e4150;fill-opacity:1;fill-rule:nonzero;stroke:none"
           d="m 15467.8,645.758 -188.1,-2.22 827.7,4452.762 192.6,-36.52 -832.2,-4414.022" /></g><g
         transform="scale(1.37603)"
         id="g82"><path
           id="path84"
           style="fill:#f7d99b;fill-opacity:1;fill-rule:nonzero;stroke:none"
           d="m 12922.4,9838.99 c 673.7,-72.16 1545.7,-148.28 2420.9,-1633.67 956.7,-1623.49 453.1,-4048.51 -301.9,-4722.4 -755.1,-673.9 -3221.2,-1505.93 -5294.31,-260.24 0,0 -1251.71,754.85 -609.28,2007.73 988.59,1927.93 848.89,2330 1290.89,3085.58 442,755.57 1063.6,1676.16 2493.7,1523" /></g><g
         transform="scale(1.37603)"
         id="g86"><path
           id="path88"
           style="fill:#f3c267;fill-opacity:1;fill-rule:nonzero;stroke:none"
           d="m 15343.3,8205.32 c -597.4,1013.83 -1193.2,1371.08 -1725.5,1518.72 205.9,-213.09 414.6,-487.2 623.6,-841.77 956.7,-1623.49 453,-4048.51 -302,-4722.41 -669.6,-597.58 -2684.9,-1319.37 -4578.27,-606.38 194.69,-215.47 385.96,-330.8 385.96,-330.8 2073.11,-1245.69 4539.21,-413.66 5294.31,260.24 755,673.89 1258.6,3098.91 301.9,4722.4" /></g><path
         id="path90"
         style="fill:#f47374;fill-opacity:1;fill-rule:nonzero;stroke:none"
         d="m 4919.47,11955.4 c -26.3,-207.3 189.52,-371.7 381.45,-358.8 212.19,14.4 392.17,188.4 423.2,396.9 33.59,225.7 -102.02,406.2 -311.81,422.7 -204.22,16.1 -334.86,-165.7 -275.87,-349.1 42.28,-131.5 162.33,-180.5 222.8,-144.2 47.13,28.2 44.28,99.5 -12.78,112.1 -22.87,5.1 -46.44,-7.7 -58.59,-25.2 -49.95,19.8 -97.48,110.8 -65.23,208.9 41.21,125.5 199.77,132.6 298.25,74.1 125.35,-74.4 145.05,-234.7 99.07,-362.5 -48.27,-134.1 -180.01,-239.8 -323.44,-250 -162.47,-11.5 -305.45,113 -318.43,274.9 -3.07,38.2 -53.92,37.3 -58.62,0.2" /><g
         transform="scale(1.28461)"
         id="g92"><path
           id="path94"
           style="fill:#f7d99b;fill-opacity:1;fill-rule:nonzero;stroke:none"
           d="m 14949.7,14691.5 c -746.9,4.5 -1354.6,-363.9 -1357.4,-822.8 -1.4,-229.4 148.8,-438 392.7,-589.8 l -307.2,-674.7 641.1,522.1 c 185.7,-60.3 396.9,-95.1 620.9,-96.4 747,-4.4 1354.8,364 1357.5,822.8 2.7,458.8 -600.7,834.4 -1347.6,838.8" /></g><g
         transform="scale(1.21448)"
         id="g96"><path
           id="path98"
           style="fill:#f3c267;fill-opacity:1;fill-rule:nonzero;stroke:none"
           d="m 15265.7,14577.5 c 70.2,-266.3 342.9,-425.2 609.1,-355 266.3,70.2 425.2,343 355,609.2 -70.2,266.3 -342.9,425.3 -609.1,355.1 -266.2,-70.2 -425.2,-343 -355,-609.3" /></g><g
         transform="scale(1.19683)"
         id="g100"><path
           id="path102"
           style="fill:#ebebe9;fill-opacity:1;fill-rule:nonzero;stroke:none"
           d="m 16262,14912.9 c 38,-144.4 -48.2,-292.4 -192.6,-330.5 -144.5,-38.1 -292.4,48.1 -330.5,192.6 l 523.1,137.9" /></g><path
         id="path104"
         style="fill:#f35f52;fill-opacity:1;fill-rule:nonzero;stroke:none"
         d="m 9300.18,10504.2 2649.22,19.9 c 60.5,0.5 109.1,49.9 108.7,110.4 l -13.3,1771.1 c -0.5,60.5 -49.9,109.2 -110.4,108.7 l -2649.16,-19.9 c -60.5,-0.4 -109.18,-49.8 -108.72,-110.3 l 13.29,-1771.2 c 0.46,-60.5 49.87,-109.1 110.37,-108.7" /><path
         id="path106"
         style="fill:#f35f52;fill-opacity:1;fill-rule:nonzero;stroke:none"
         d="m 11963.6,11529.1 855.3,-871.6 -1055.2,196.9 z" /><path
         id="path108"
         style="fill:#ffffff;fill-opacity:1;fill-rule:nonzero;stroke:none"
         d="m 11191.9,11652 -257.5,4.6 c 0,0 -324.3,242.2 -334.3,327.8 -9.9,85.6 43.3,266.8 -7,289.6 -50.3,22.7 -156.9,40.7 -224.2,-72.7 -48.9,-82.3 -8.2,-382.6 -38.4,-402.7 -19,-12.6 -167,-14.1 -275.1,-13.5 -71.16,0.4 -136.53,-38.7 -169.86,-101.5 l -0.11,-0.2 c -22.53,-42.5 -12.28,-94.9 24.61,-125.7 l 57.41,-48 -45.18,-60.1 c -33.64,-44.7 -24.89,-108.1 19.6,-142.1 l 45.32,-34.5 -31.03,-35.4 c -39.98,-45.5 -31.55,-115.7 18.07,-150.4 l 40.27,-28.3 -6,-11.1 c -25.17,-46.4 -10.74,-104.3 33.2,-133.4 l 40.5,-26.8 685.6,-12.1 c 64.2,-1.2 128,10.8 187.4,35.2 l 241.9,35.6 c 26,3.8 45.2,26.1 45.3,52.4 l 1.6,600.1 c 0,29 -23.2,52.6 -52.1,53.2" /><path
         id="path110"
         style="fill:#f68480;fill-opacity:1;fill-rule:nonzero;stroke:none"
         d="m 14805.1,10143.3 -238.3,-714.9 726.3,285.7 z" /><path
         id="path112"
         style="fill:#14293f;fill-opacity:1;fill-rule:nonzero;stroke:none"
         d="m 15553.8,12270.6 c -48.4,-2 -181.1,-46.2 -375.1,-411.6 -247.7,-466.6 -609.8,-1876.2 -609.8,-1876.2 l 1080.8,-401.1 138.8,294.2 228.7,2265 c 0,0 -450,130.3 -463.4,129.7" /><g
         transform="scale(1.15947)"
         id="g114"><path
           id="path116"
           style="fill:#1b3659;fill-opacity:1;fill-rule:nonzero;stroke:none"
           d="m 14646.7,10758.2 c -266.5,-0.4 -926.1,-77.9 -1232.1,-175.4 0,0 -224.9,-1926.21 202.4,-3389.87 95.7,-327.65 -79.1,-1358.29 -79.1,-1358.29 l 2762.1,36.31 c 0,0 -327.2,2491.56 -204,2893.96 123.3,402.43 126.2,1804.99 126.2,1804.99 0,0 -18.9,2.9 -620.5,106.6 -280.7,48.3 -670.3,82.1 -955,81.7" /></g><g
         transform="scale(1.12225)"
         id="g118"><path
           id="path120"
           style="fill:#f68d82;fill-opacity:1;fill-rule:nonzero;stroke:none"
           d="m 15465.1,2334.42 c 0,0 -63.2,-726.22 -179.2,-927.34 -116.1,-201.11 6,-542.924 12.2,-589.882 6,-46.872 244.3,-113.966 623.1,-73.694 378.8,40.188 372.7,127.335 342.1,268.126 -30.5,140.79 -232.1,321.76 -244.3,455.78 -12.2,134.1 116.1,616.71 116.1,616.71 l -670,250.3" /></g><g
         transform="scale(1.16754)"
         id="g122"><path
           id="path124"
           style="fill:#38816a;fill-opacity:1;fill-rule:nonzero;stroke:none"
           d="m 13753.8,6370.49 c 0,0 -1893.5,104.75 -2316.3,-150.4 -422.8,-255.24 76.5,-779.33 76.5,-779.33 0,0 1541.5,-667.9 4122.2,-816.34 611.1,-35.2 663.8,1588.04 549.5,1722.34 -114.2,134.3 -2431.9,23.73 -2431.9,23.73" /></g><g
         transform="scale(1.12628)"
         id="g126"><path
           id="path128"
           style="fill:#375491;fill-opacity:1;fill-rule:nonzero;stroke:none"
           d="m 15911.4,684.647 c 388.6,41.286 340.6,231.557 309.2,376.013 -19.6,90.39 -131.1,197.02 -197.5,297.89 -34.7,-27.62 -91.3,-76.27 -260.1,-125.99 -175.3,-51.59 -415.5,50.52 -568.6,114.53 -54.5,-202.43 -57,-460.54 -51.9,-499.697 6.3,-48.123 380.2,-204.033 768.9,-162.746" /></g><g
         transform="scale(1.19116)"
         id="g130"><path
           id="path132"
           style="fill:#43927a;fill-opacity:1;fill-rule:nonzero;stroke:none"
           d="m 14841.8,4920.92 c -74.1,-559.2 -441.2,-3343.05 -441.2,-3343.05 l 851.8,-105.18 c 0,0 1047.6,3633.43 993.9,4189.19 -53.8,555.76 -445.9,602.52 -445.9,602.52 0,0 -762.3,136.76 -958.6,-1343.48" /></g><g
         transform="scale(1.12793)"
         id="g134"><path
           id="path136"
           style="fill:#1b3659;fill-opacity:1;fill-rule:nonzero;stroke:none"
           d="m 14812,13557.2 c 0,0 298.9,315.1 539.4,-68.3 0,0 185.1,104 315.1,-81.2 0,0 334.6,100.7 415.8,-399.6 0,0 172.2,32.5 194.9,-172.2 22.8,-204.7 -81.2,-341.1 -81.2,-341.1 0,0 96.7,-72.6 52.8,-260.8 -37.4,-160 -169.7,-184.3 -169.7,-184.3 0,0 -35.8,-269.7 -152.7,-350.9 -116.9,-81.2 -276.2,-42.3 -276.2,-42.3 0,0 -42.2,-146.1 -178.7,-133.2 -136.5,13 -305.3,143 -458.1,84.5 -152.7,-58.5 -549.1,3.3 -549.1,3.3 0,0 -445,198.1 -311.9,653 0,0 -233.8,211.2 -29.1,464.6 0,0 -149.5,396.4 146.2,630.3 295.6,233.9 542.5,198.2 542.5,198.2" /></g><g
         transform="scale(1.07301)"
         id="g138"><path
           id="path140"
           style="fill:#f68d82;fill-opacity:1;fill-rule:nonzero;stroke:none"
           d="m 15623.3,12002.1 -56.8,-422 c 0,0 -127.4,-607.9 36.4,-725.1 163.9,-117.2 697.1,742.4 697.1,742.4 l -56.3,1069.2 -620.4,-664.5" /></g><g
         transform="scale(1.0705)"
         id="g142"><path
           id="path144"
           style="fill:#f35f52;fill-opacity:1;fill-rule:nonzero;stroke:none"
           d="m 16300,12349 c -135.7,-365.5 -458.9,-590.2 -688.4,-677.4 l 48.3,358.6 621.9,666.1 18.2,-347.3" /></g><g
         transform="scale(1.08154)"
         id="g146"><path
           id="path148"
           style="fill:#f68d82;fill-opacity:1;fill-rule:nonzero;stroke:none"
           d="m 15739.7,13681.2 c -330,113.6 -681.8,-105.7 -732.1,-445.9 -21.9,-147.8 -41.7,-333.8 -45.4,-537.1 -8.9,-488.9 244.2,-964.8 466.3,-964.8 222,0 835.6,316.5 857.8,1010.7 13.7,428.5 -200.3,817.8 -546.6,937.1" /></g><g
         transform="scale(1.09097)"
         id="g150"><path
           id="path152"
           style="fill:#f68d82;fill-opacity:1;fill-rule:nonzero;stroke:none"
           d="m 15983.3,12579.5 c 0,-106.9 71,-193.6 158.4,-193.6 87.4,0 158.3,86.7 158.3,193.6 0,107 -70.9,193.6 -158.3,193.6 -87.4,0 -158.4,-86.6 -158.4,-193.6" /></g><g
         transform="scale(1.03237)"
         id="g154"><path
           id="path156"
           style="fill:#1b3659;fill-opacity:1;fill-rule:nonzero;stroke:none"
           d="m 15481.6,14587.6 c -240.2,-190.4 -324.5,-479.6 -188.1,-646 136.5,-166.4 441.8,-147 682,43.3 240.3,190.4 324.5,479.6 188.1,646 -136.4,166.4 -441.8,147 -682,-43.3" /></g><g
         transform="scale(1.1995)"
         id="g158"><path
           id="path160"
           style="fill:#f68d82;fill-opacity:1;fill-rule:nonzero;stroke:none"
           d="m 15710,10010.2 c -249.6,93.4 -371.7,-2148.24 -405.4,-3070.96 -442.1,-42.35 -1212.6,-0.33 -1404.4,14.09 -90.3,6.76 -298.3,82.7 -388.1,94.37 -92,12.01 -175.3,18.26 -220.5,10.42 -16.6,-2.91 -477.4,-190.66 -516.8,-231.84 -48.9,-51.11 -181.1,-179.91 -158.8,-235.6 22.3,-55.77 254.2,155.23 254.2,155.23 l 113.3,63.36 c -141,-137.39 -410.1,-318.22 -371.4,-384.08 37.9,-64.27 280.6,119.3 453.5,244.36 -148.4,-133.56 -332.7,-372.49 -290.2,-409.76 38.1,-33.51 247.8,243.19 471.9,322.88 83,29.52 165.8,-52.27 231.2,-62.1 48,-7.26 122,-22.76 169.1,-9.42 l 242.7,68.53 c 82.6,-7.43 84.7,-56.11 168.2,-73.87 96.9,-20.51 255.8,-42.18 379.2,-72.2 710.6,-173.07 947.6,-253.35 1165.1,-253.27 658.9,0.42 697.2,3609.33 107.2,3829.86" /></g><g
         transform="scale(1.19438)"
         id="g162"><path
           id="path164"
           style="fill:#1b3659;fill-opacity:1;fill-rule:nonzero;stroke:none"
           d="m 16253.1,7939.6 c 46.9,949.13 40,2119 -493.8,2318.6 -210.7,78.7 -582,-394.78 -515.2,-2337.86 285,-23.44 703.4,-42.36 1009,19.26" /></g><g
         transform="scale(1.03602)"
         id="g166"><path
           id="path168"
           style="fill:#f68480;fill-opacity:1;fill-rule:nonzero;stroke:none"
           d="m 15294,9623.38 h 62.8 l 943.2,-2309.9 -65,9.85 -941,2300.05" /></g><path
         id="path170"
         style="fill:#f68d82;fill-opacity:1;fill-rule:nonzero;stroke:none"
         d="m 14388.5,1922.7 c 0,0 88.5,-282.9 -70,-470 -158.6,-187.1 -817.4,-370.7 -903.8,-472.001 -86.5,-101.301 -80,-187.597 -80,-187.597 l 1849,50.699 -20.1,556.499 -85.2,399.9 -689.9,122.5" /><path
         id="path172"
         style="fill:#375491;fill-opacity:1;fill-rule:nonzero;stroke:none"
         d="m 14203.4,1359.4 c 0,0 475.1,-191.5 704.6,-78.2 229.5,113.4 222.6,144.9 289,102.6 66.4,-42.3 90.2,-563.999 90.2,-563.999 l -2079.1,-60.899 c -144.7,3.297 -217.9,109.5 -100.3,200.399 80.6,62.399 173.7,104.099 226.7,134.299 162.6,93 868.9,265.8 868.9,265.8" /><path
         id="path174"
         style="fill:#43927a;fill-opacity:1;fill-rule:nonzero;stroke:none"
         d="m 14458.5,6915.6 c -142.9,299.7 -467.9,689.9 -1039.8,454.9 -545.4,-224.2 -691.8,-775.1 -519.7,-1339.2 172.1,-564.2 1305,-3880.5 1344.5,-4336.4 l 904.5,-6 c 0,0 -164.4,2625.9 -204.7,3260.6 -38.8,610.7 -237.4,1447.3 -484.8,1966.1" /><g
         transform="scale(1.1582)"
         id="g176"><path
           id="path178"
           style="fill:#f35f52;fill-opacity:1;fill-rule:nonzero;stroke:none"
           d="m 11215.8,8608.21 h 2610.7 c 69.1,0 131.3,-41.7 157.5,-105.68 l 803.8,-1960.55 h 1439.3 c 40.3,0 72.9,-32.63 72.9,-72.87 0,-40.15 -32.6,-72.79 -72.9,-72.79 h -4096.3 c -112.6,0 -214.8,66.14 -260.9,168.89 l -809.4,1803.06 c -50.6,112.59 31.8,239.94 155.3,239.94" /></g><path
         id="path180"
         style="fill:#ffffff;fill-opacity:1;fill-rule:nonzero;stroke:none"
         d="m 14618,8647.7 c 20.5,-102 109.4,-170.2 198.8,-152.3 89.3,17.8 145.1,115 124.7,217 -20.4,102 -109.4,170.2 -198.7,152.3 -89.3,-17.8 -145.2,-115 -124.8,-217" /><g
         transform="scale(1.51293)"
         id="g182"><path
           id="path184"
           style="fill:#c4daf2;fill-opacity:1;fill-rule:nonzero;stroke:none"
           d="m 15280.1,8712.91 c -516.9,0 -951.2,402.97 -984,926.99 -34.1,545.1 379.1,1014.7 923.1,1048.9 21,1.3 42,2 62.7,2 516.8,0 951.1,-403 984,-927.03 34.1,-545.07 -379.2,-1014.68 -923.1,-1048.89 -21,-1.32 -42,-1.97 -62.7,-1.97" /></g><g
         transform="scale(1.3536)"
         id="g186"><path
           id="path188"
           style="fill:#1e4150;fill-opacity:1;fill-rule:nonzero;stroke:none"
           d="m 16300,10865.5 v -31.3 h -406.6 v 31.3 h 406.6" /></g><g
         transform="scale(1.51706)"
         id="g190"><path
           id="path192"
           style="fill:#1e4150;fill-opacity:1;fill-rule:nonzero;stroke:none"
           d="m 16300,9694.8 v -27.93 h -362.8 v 27.93 h 362.8" /></g><g
         transform="scale(1.4195)"
         id="g194"><path
           id="path196"
           style="fill:#1e4150;fill-opacity:1;fill-rule:nonzero;stroke:none"
           d="m 16300,11077.4 h -29.8 v 388.5 h 29.8 v -388.5" /></g><g
         transform="scale(1.4195)"
         id="g198"><path
           id="path200"
           style="fill:#1e4150;fill-opacity:1;fill-rule:nonzero;stroke:none"
           d="m 16300,9204.06 h -29.8 v 388.54 h 29.8 v -388.54" /></g><g
         transform="scale(1.42114)"
         id="g202"><path
           id="path204"
           style="fill:#1e4150;fill-opacity:1;fill-rule:nonzero;stroke:none"
           d="m 16300,10328.4 c 0,-17.7 -14.4,-32.1 -32.1,-32.1 -17.7,0 -32.1,14.4 -32.1,32.1 0,17.8 14.4,32.2 32.1,32.2 17.7,0 32.1,-14.4 32.1,-32.2" /></g><g
         transform="scale(1.41971)"
         id="g206"><path
           id="path208"
           style="fill:#1e4150;fill-opacity:1;fill-rule:nonzero;stroke:none"
           d="m 16284.3,10324.5 c -3.7,0 -7.3,1.4 -10.1,4.2 l -576.7,577.8 c -5.6,5.6 -5.6,14.7 0,20.3 5.6,5.7 14.7,5.7 20.3,0 l 576.6,-577.8 c 5.6,-5.6 5.6,-14.7 0,-20.3 -2.8,-2.8 -6.4,-4.2 -10.1,-4.2" /></g><g
         transform="scale(1.43592)"
         id="g210"><path
           id="path212"
           style="fill:#1e4150;fill-opacity:1;fill-rule:nonzero;stroke:none"
           d="m 16283.8,9644.74 c -2.4,1.19 -4.3,3.28 -5.2,5.99 l -184.3,557.77 c -1.8,5.5 1.2,11.3 6.6,13.1 5.4,1.8 11.2,-1.1 13,-6.6 l 184.3,-557.77 c 1.8,-5.42 -1.1,-11.27 -6.6,-13.06 -2.7,-0.9 -5.5,-0.62 -7.8,0.57" /></g><g
         transform="scale(1.61977)"
         id="g214"><path
           id="path216"
           style="fill:#1b3659;fill-opacity:1;fill-rule:nonzero;stroke:none"
           d="m 16040.1,7085.53 73.6,120 -117,47.44 -73.5,-119.99 z m -298.1,-107.06 82.3,133.63 -66,26.79 c -14.5,5.86 -21.5,22.33 -15.6,36.79 5.9,14.46 22.3,21.43 36.8,15.56 l 76.2,-30.9 73.5,120.01 -70.6,28.62 c -14.4,5.86 -21.4,22.33 -15.5,36.79 5.8,14.46 22.3,21.42 36.8,15.56 l 80.7,-32.73 85.4,137.43 c 7.2,11.68 21.9,16.43 34.6,11.27 l 12.3,-5 c 16.2,-6.56 22.6,-26.05 13.5,-40.94 l -79.5,-129.67 117,-47.44 85.5,137.42 c 7.2,11.67 21.8,16.43 34.5,11.27 l 13.5,-5.46 c 16.2,-6.55 22.6,-26.05 13.5,-40.93 l -79.4,-129.68 66,-26.78 c 14.5,-5.87 21.5,-22.35 15.6,-36.8 -5.9,-14.46 -22.4,-21.43 -36.8,-15.56 l -76.2,30.89 -72.4,-120.45 70.6,-28.62 c 14.4,-5.86 21.4,-22.33 15.5,-36.79 -5.9,-14.46 -22.3,-21.43 -36.8,-15.56 l -80.7,32.72 -87.3,-141.72 c -7.2,-11.75 -21.8,-16.55 -34.6,-11.37 l -14.4,5.85 c -16.2,6.56 -22.6,26.1 -13.4,40.98 l 82.2,133.63 -117,47.44 -87.2,-141.72 c -7.3,-11.74 -22,-16.55 -34.7,-11.36 l -14.4,5.84 c -16.2,6.57 -22.6,26.11 -13.5,40.99" /></g><g
         transform="scale(1.11081)"
         id="g218"><path
           id="path220"
           style="fill:#f47374;fill-opacity:1;fill-rule:nonzero;stroke:none"
           d="m 12430.4,15476.3 122.6,276.9 -158.5,258 c -18,29.4 5.5,66.7 39.8,63.2 l 301.1,-31.1 196.5,230.4 c 22.3,26.3 65.1,15.5 72.4,-18.2 l 63.4,-296.1 279.9,-115.5 c 31.9,-13.2 34.8,-57.2 5,-74.5 l -261.9,-151.9 -23.4,-301.9 c -2.7,-34.4 -43.7,-50.8 -69.3,-27.7 l -225.5,202.2 -294.3,-71.1 c -33.5,-8.1 -61.7,25.8 -47.8,57.3" /></g><g
         transform="scale(1.5013)"
         id="g222"><path
           id="path224"
           style="fill:#f3c267;fill-opacity:1;fill-rule:nonzero;stroke:none"
           d="m 15771.7,11451.1 68,153.6 -88,143.2 c -10,16.3 3,37 22.1,35.1 l 167.2,-17.3 108.9,127.9 c 12.4,14.6 36.2,8.6 40.2,-10.1 l 35.2,-164.3 155.4,-64.1 c 17.7,-7.4 19.3,-31.8 2.8,-41.4 l -145.4,-84.3 -13,-167.5 c -1.5,-19.1 -24.2,-28.2 -38.4,-15.4 l -125.1,112.2 -163.4,-39.4 c -18.6,-4.5 -34.3,14.3 -26.5,31.8" /></g><g
         transform="scale(1.41703)"
         id="g226"><path
           id="path228"
           style="fill:#f47374;fill-opacity:1;fill-rule:nonzero;stroke:none"
           d="m 15993.7,7480.97 -11.5,134.85 -117.5,67.03 c -13.4,7.64 -12.3,27.31 2,33.29 l 124.7,52.54 27.4,132.52 c 3.2,15.1 22.2,20.06 32.3,8.4 l 88.5,-102.37 134.5,14.86 c 15.3,1.7 25.9,-14.91 17.9,-28.1 l -70,-115.81 55.8,-123.33 c 6.3,-14.05 -6.2,-29.28 -21.2,-25.77 l -131.8,30.8 -100.1,-91.09 c -11.4,-10.38 -29.7,-3.18 -31,12.18" /></g><path
         id="path230"
         style="fill:#f3c267;fill-opacity:1;fill-rule:nonzero;stroke:none"
         d="m 7376.63,13410.1 74.95,169.1 -96.86,157.7 c -11.03,17.9 3.31,40.7 24.27,38.5 l 184.04,-19 120,140.9 c 13.66,16 39.79,9.4 44.21,-11.2 l 38.8,-180.9 171.02,-70.6 c 19.47,-8 21.27,-34.9 3.05,-45.5 l -160.07,-92.8 -14.29,-184.4 c -1.63,-21.1 -26.64,-31.1 -42.33,-17 l -137.72,123.5 -179.86,-43.4 c -20.48,-4.9 -37.74,15.8 -29.21,35.1" /><path
         id="path232"
         style="fill:#59c69f;fill-opacity:1;fill-rule:nonzero;stroke:none"
         d="m 13177.6,13716.2 74.9,169.1 -96.8,157.6 c -11.1,18 3.3,40.8 24.2,38.7 l 184.1,-19 120,140.8 c 13.6,16 39.8,9.4 44.2,-11.2 l 38.8,-180.9 171,-70.6 c 19.5,-8 21.3,-34.9 3,-45.5 l -160,-92.8 -14.3,-184.5 c -1.6,-21 -26.7,-31 -42.3,-16.9 l -137.8,123.6 -179.8,-43.5 c -20.5,-4.9 -37.8,15.8 -29.2,35.1" /><g
         transform="scale(1.02504)"
         id="g234"><path
           id="path236"
           style="fill:#59c69f;fill-opacity:1;fill-rule:nonzero;stroke:none"
           d="m 10038.1,16054.5 289.7,42.1 119.1,-458.8 431.2,9.2 145.3,-328.7 166.4,73.5 -194.3,439.7 -408.7,-8.7 -123.9,477.2 -435.9,-63.2 11.1,-182.3" /></g><path
         id="path238"
         style="fill:#1b3659;fill-opacity:1;fill-rule:nonzero;stroke:none"
         d="m 9652.56,8579.9 224.75,198.9 359.99,-326.3 364.4,250.3 309.3,-200.2 101.3,156.6 -413.6,267.7 -345.4,-237.2 -374.48,339.5 -338.2,-299.3 111.94,-150" /><path
         id="path240"
         style="fill:#59c69f;fill-opacity:1;fill-rule:nonzero;stroke:none"
         d="m 6805.96,8579.3 168.62,275.1 -268.21,108.8 -168.62,-275.1 z m -683.44,-245.4 188.61,306.3 -151.46,61.5 c -33.14,13.4 -49.11,51.2 -35.67,84.3 13.44,33.2 51.21,49.1 84.35,35.7 l 174.67,-70.8 168.61,275.1 -161.77,65.6 c -33.14,13.4 -49.11,51.2 -35.68,84.3 13.45,33.2 51.21,49.1 84.36,35.7 l 184.98,-75 195.83,315 c 16.64,26.8 50.13,37.7 79.33,25.8 l 28.24,-11.4 c 37.07,-15.1 51.79,-59.8 30.89,-93.9 l -182.14,-297.2 268.21,-108.8 195.83,315 c 16.64,26.8 50.13,37.7 79.33,25.9 l 30.83,-12.5 c 37.06,-15.1 51.78,-59.8 30.88,-93.9 l -182.14,-297.3 151.46,-61.4 c 33.15,-13.4 49.12,-51.2 35.68,-84.3 -13.44,-33.2 -51.21,-49.1 -84.35,-35.7 l -174.67,70.8 -166.04,-276.1 161.77,-65.6 c 33.15,-13.5 49.12,-51.2 35.68,-84.4 -13.44,-33.1 -51.21,-49.1 -84.35,-35.6 l -184.98,75 -200.03,-324.9 c -16.58,-26.9 -50.18,-37.9 -79.48,-26.1 l -33.03,13.4 c -37.11,15.1 -51.81,59.9 -30.81,94 l 188.61,306.3 -268.21,108.8 -200.02,-324.9 c -16.58,-26.9 -50.18,-37.9 -79.48,-26 l -33.03,13.3 c -37.11,15.1 -51.8,59.9 -30.81,94" /><g
         transform="scale(1.43287)"
         id="g242"><path
           id="path244"
           style="fill:#43927a;fill-opacity:1;fill-rule:nonzero;stroke:none"
           d="m 16230.3,3111.53 c -13.4,118.29 -29.3,239.17 -84.2,344.69 -66.7,128.35 -183.9,220.89 -286.3,322.85 -191.4,190.53 -338.7,425.3 -427.1,680.66 -68.3,197.51 -102.4,407.93 -196.6,594.41 -57.5,113.9 -135.9,215.72 -201.3,325.29 -154.3,258.99 -238.4,565.02 -447.8,781.79 -40.3,-262.83 39.4,-541.71 212.2,-743.4 51.6,-60.09 111.4,-114.32 150.7,-183.13 71.3,-125 64.8,-277.42 73.2,-421.12 15.7,-270.09 91.8,-536.48 221.1,-773.9 137.4,-252.29 335.7,-476.95 409.1,-754.71 55.1,-208.19 38.7,-441.71 156.1,-622.11 12.7,-19.54 27.3,-39.16 30.3,-62.33 1.8,-12.98 -0.2,-26.17 -2.3,-39.08 -2.6,-16.75 -5.2,-33.57 -7.9,-50.32 -26.6,-170.36 -54.3,-387.12 92.2,-514.63 101.4,-88.43 232,-90.38 304.9,27.01 73.4,118.22 66.9,291.16 61.5,424.18 -9.1,221.52 -32.8,443.66 -57.8,663.85" /></g><g
         transform="scale(1.46254)"
         id="g246"><path
           id="path248"
           style="fill:#38816a;fill-opacity:1;fill-rule:nonzero;stroke:none"
           d="m 16159.4,3182.68 c -55.8,193.23 -142.5,377.29 -185.9,573.66 -42,190.49 -42.4,387.41 -42.5,582.55 -0.2,213.81 -0.4,427.61 -0.5,641.42 -0.1,133.06 -0.2,266.93 -22.2,398.14 -47.3,282.46 -194.1,543.65 -219,828.9 -10.8,123.42 1.7,248.13 -11.8,371.21 -7.8,70.28 -25.8,142.08 -58.4,204.5 -35,67.07 -131.7,64.11 -163.5,-4.58 -71.3,-154.52 -116.5,-321.49 -87.7,-487.03 17.3,-99.28 60.3,-191.86 92.5,-287.37 142.9,-425.29 67,-896.12 177.7,-1331.04 33.3,-131.28 83.8,-260.03 89.7,-395.34 14.1,-323.96 -227.8,-619.82 -205.7,-943.3 18.2,-265.22 208.9,-484.7 288.9,-738.16 44.8,-141.88 54.4,-293.33 102.4,-434.11 37.3,-109.47 124,-242.32 258.7,-209.09 127.9,31.52 89.3,135.86 83.6,235.62 -19.4,337.29 -1.2,664.53 -96.3,994.02" /></g><g
         transform="scale(1.5104)"
         id="g250"><path
           id="path252"
           style="fill:#43927a;fill-opacity:1;fill-rule:nonzero;stroke:none"
           d="m 15930.7,2910.35 c -5.4,97.25 -21.9,194.98 -8.3,291.44 11.5,81.44 43.9,158.17 67.1,237.02 43.4,147.84 54.1,303.03 64.6,456.77 19.1,279.46 38.2,558.92 57.3,838.38 29.7,434.46 59.5,870.1 140.7,1297.8 22.6,118.78 47.9,247.48 -5.5,355.93 -11.2,22.84 -33.4,47.08 -57.6,39.46 -17.3,-5.43 -25.8,-24.43 -32.1,-41.51 -177.5,-482.52 -244.6,-1001.98 -442.8,-1476.36 -47.5,-113.68 -102.7,-225.44 -127.3,-346.13 -29.5,-145 -13.3,-294.69 -9.5,-442.6 5.5,-212.06 -15.2,-425.78 -73.7,-629.63 -30.7,-106.66 -71.7,-210.94 -88.5,-320.65 -21,-136.85 -3.3,-276.21 9.8,-413.99 25.1,-264.9 33.7,-531.38 25.5,-797.33 -4.8,-156.39 127.2,-152.28 214.6,-56.21 61.2,67.2 60.6,140.95 81.6,224.57 68.7,274.56 200.8,485.37 184.1,783.04" /></g><g
         transform="scale(1.41416)"
         id="g254"><path
           id="path256"
           style="fill:#38816a;fill-opacity:1;fill-rule:nonzero;stroke:none"
           d="m 16134.2,2655.57 c -124.7,200.33 -373,314.18 -452.7,536.36 -20.3,56.5 -28.2,117.32 -53,172.05 -55,121.48 -180.1,190.15 -303.1,246.01 -17,7.78 -36.5,-4.6 -36.7,-23.41 -0.4,-29.84 13.7,-58.34 38.5,-75.03 94.8,-63.78 166.7,-161.22 198.8,-271.11 37.9,-130.18 21.5,-272.88 68.7,-400.02 39.6,-106.71 121.2,-193.97 159.5,-301.17 35,-97.94 31.4,-205 47.8,-307.82 16.5,-102.74 62.2,-211.86 156.5,-255.34 341.5,-157.34 256.1,550.08 175.7,679.48" /></g><g
         transform="scale(1.56802)"
         id="g258"><path
           id="path260"
           style="fill:#43927a;fill-opacity:1;fill-rule:nonzero;stroke:none"
           d="m 15831.8,2454.62 c -4.8,-87.31 8.6,-178.89 -25.6,-259.37 -21.9,-51.53 -61.2,-93.12 -93.5,-138.78 -113.3,-160.39 -154.5,-387.56 -328.6,-477.79 -11.5,-6 -24.3,-11.36 -37.1,-8.93 -17.8,3.31 -29.5,20.53 -36.7,37.24 -42.7,99.49 5.2,211.54 33.6,316.07 5,18.3 9.1,38.64 0.4,55.48 -9.6,18.5 -31.5,26.53 -46.4,41.07 -29.7,28.89 -26.9,76.79 -21,117.98 14.8,102.75 35.5,204.66 62.1,305.04 15.1,56.88 32.5,114.28 65.3,163.13 36.1,53.83 88.6,94.01 137.6,136.22 216.9,186.55 383,431.82 476.1,702.67 20.1,58.68 38.1,120.6 79.6,166.52 41.6,45.91 115.7,69.51 166.4,33.93 36,-25.39 -111.6,-262.82 -128.8,-291.26 -49.2,-81.38 -49.8,-152.17 -77.6,-242.47 -68.1,-221.43 -212.8,-419.58 -225.8,-656.75" /></g><g
         transform="scale(1.54834)"
         id="g262"><path
           id="path264"
           style="fill:#38816a;fill-opacity:1;fill-rule:nonzero;stroke:none"
           d="m 15859.2,2383.58 c 32.6,84.35 65.6,169.79 76.3,259.63 11.9,99.92 -3.9,202.03 13.2,301.16 21.9,127.43 96.2,239.55 132.9,363.49 26.6,89.51 33.2,183.55 49.1,275.58 45.6,263.12 169.3,520.24 133.8,784.91 -7.7,57.54 -33.7,124.64 -90.8,134.46 -51.8,8.91 -98.8,-38.42 -112.3,-89.26 -13.4,-50.82 -3.4,-104.43 0.3,-156.87 10.3,-146.29 -31.4,-295.67 -116,-415.35 -81.3,-115.02 -199.2,-201.57 -272.3,-321.89 -89.7,-147.64 -101.9,-327.84 -147.6,-494.47 -91.1,-331.32 -319.4,-620.4 -361,-961.54 -16.5,-135.76 15.3,-300.77 140.6,-354.96 362.3,-156.87 471.7,462.82 553.8,675.11" /></g><g
         transform="scale(1.52917)"
         id="g266"><path
           id="path268"
           style="fill:#f35f52;fill-opacity:1;fill-rule:nonzero;stroke:none"
           d="m 15416.6,1987.61 h -58.6 -783.3 c -57.6,0 -100.1,-53.82 -86.7,-109.99 l 306.9,-1294.231 c 9.5,-40.285 45.4,-68.665 86.8,-68.665 h 476.3 58.6 476.4 c 41.3,0 77.2,28.38 86.8,68.665 l 306.9,1294.231 c 13.3,56.17 -29.1,109.99 -86.8,109.99 h -783.3" /></g><path
         id="path270"
         style="fill:#1e4150;fill-opacity:1;fill-rule:nonzero;stroke:none"
         d="M 10656.9,5032.6 H 4398.43 v 323.2 h 6258.47 v -323.2" /><path
         id="path272"
         style="fill:#1e4150;fill-opacity:1;fill-rule:nonzero;stroke:none"
         d="M 8603.39,3197.9 H 4511.57 v 282.8 h 4091.82 v -282.8" /><path
         id="path274"
         style="fill:#1e4150;fill-opacity:1;fill-rule:nonzero;stroke:none"
         d="M 10042.8,785.602 V 5194.2 H 9778.77 V 785.602 h 264.03" /><path
         id="path276"
         style="fill:#1e4150;fill-opacity:1;fill-rule:nonzero;stroke:none"
         d="M 6309.21,785.602 V 5194.2 H 6045.22 V 785.602 h 263.99" /><path
         id="path278"
         style="fill:#1e4150;fill-opacity:1;fill-rule:nonzero;stroke:none"
         d="M 7901.04,785.602 9323.17,5156.3 9090.06,5232.1 7643.26,785.602 h 257.78" /><path
         id="path280"
         style="fill:#1e4150;fill-opacity:1;fill-rule:nonzero;stroke:none"
         d="M 3900.6,785.602 5116.96,5165.9 4880.76,5231.5 3646.19,785.602 h 254.41" /><g
         transform="scale(1.52532)"
         id="g282"><path
           id="path284"
           style="fill:#1e4150;fill-opacity:1;fill-rule:nonzero;stroke:none"
           d="m 15218.1,8644.08 c -539.5,-33.93 -1004.3,376.85 -1038.2,917.49 -33.8,540.63 376.1,1006.43 915.6,1040.33 539.5,34 1004.3,-376.8 1038.2,-917.45 33.9,-540.65 -376.1,-1006.44 -915.6,-1040.37 z m -61.3,2124.42 c -631.3,0 -1143.1,-512.8 -1143.1,-1145.49 0,-632.66 511.8,-1145.53 1143.1,-1145.53 631.4,0 1143.2,512.87 1143.2,1145.53 0,632.69 -511.8,1145.49 -1143.2,1145.49" /></g><g
         transform="scale(1.88572)"
         id="g286"><path
           id="path288"
           style="fill:#14293f;fill-opacity:1;fill-rule:nonzero;stroke:none"
           d="M 16300,430.923 H 1055.82 V 327.514 H 16300 v 103.409" /></g><g
         transform="scale(1.03888)"
         id="g290"><path
           id="path292"
           style="fill:#ffffff;fill-opacity:1;fill-rule:nonzero;stroke:none"
           d="m 15852.5,12780.2 447.5,7.3 c 0,0 -7.5,-170.1 -204.3,-179 -239.7,-10.9 -243.2,171.7 -243.2,171.7" /></g></g></g></svg>